<svg width="30" height="28" viewBox="0 0 30 28" fill="none" xmlns="http://www.w3.org/2000/svg">
<path d="M20.6063 19.0888L21.307 18.4004L19.6339 16.9171L18.9331 17.6056L20.6063 19.0888ZM23.6127 18.1105L26.5518 19.6895L27.703 17.8229L24.7638 16.2439L23.6127 18.1105ZM27.119 22.9631L24.9335 25.1105L26.6067 26.5938L28.7922 24.4463L27.119 22.9631ZM23.6187 25.7986C21.411 26.002 15.6508 25.8284 9.39843 19.6847L7.72529 21.168C14.5394 27.8638 21.0395 28.2005 23.8453 27.942L23.6187 25.7986ZM9.39843 19.6847C3.43537 13.8252 2.43513 8.88262 2.31045 6.71474L0.00616144 6.83017C0.158849 9.48539 1.36678 14.92 7.72529 21.168L9.39843 19.6847ZM11.5143 10.1548L11.9555 9.72121L10.2824 8.23798L9.84113 8.67155L11.5143 10.1548ZM12.3022 4.32316L10.3622 1.76234L8.47802 3.00574L10.4179 5.56655L12.3022 4.32316ZM3.79633 1.21025L1.38164 3.58298L3.05478 5.06626L5.46947 2.69353L3.79633 1.21025ZM10.6777 9.41318C9.84113 8.67155 9.84007 8.6726 9.83899 8.67365C9.83862 8.67402 9.83754 8.67508 9.83682 8.6758C9.83536 8.67726 9.83387 8.67874 9.83236 8.68027C9.82933 8.68331 9.82619 8.68648 9.82296 8.6898C9.81651 8.69642 9.80967 8.70358 9.80247 8.71131C9.78808 8.72676 9.77227 8.74442 9.75536 8.76436C9.72155 8.80425 9.68329 8.85327 9.64315 8.9118C9.56267 9.02919 9.47539 9.18379 9.40146 9.37766C9.25116 9.7719 9.16926 10.294 9.27161 10.946C9.47269 12.2269 10.372 13.9495 12.7217 16.2584L14.3948 14.7751C12.1985 12.6169 11.6575 11.2877 11.5548 10.6337C11.5053 10.3182 11.5556 10.152 11.5755 10.0997C11.5867 10.0704 11.5941 10.0622 11.5869 10.0727C11.5834 10.0777 11.5765 10.0872 11.5649 10.101C11.559 10.1077 11.552 10.1158 11.5437 10.1247C11.5395 10.1293 11.5349 10.134 11.5301 10.139C11.5276 10.1415 11.5251 10.1441 11.5225 10.1467C11.5211 10.1481 11.5198 10.1494 11.5184 10.1507C11.5178 10.1514 11.5167 10.1524 11.5164 10.1528C11.5153 10.1538 11.5143 10.1548 10.6777 9.41318ZM12.7217 16.2584C15.0645 18.5605 16.8338 19.4655 18.1838 19.6701C18.8765 19.775 19.4373 19.6912 19.8619 19.535C20.0694 19.4586 20.2335 19.3688 20.3568 19.2873C20.4183 19.2465 20.4695 19.2079 20.5108 19.1741C20.5315 19.1572 20.5497 19.1414 20.5655 19.127C20.5735 19.12 20.5809 19.1131 20.5877 19.1068C20.5911 19.1036 20.5943 19.1005 20.5974 19.0975C20.5989 19.096 20.6004 19.0946 20.602 19.0932C20.6028 19.0924 20.6038 19.0913 20.6041 19.091C20.6052 19.0899 20.6063 19.0889 19.7697 18.3472C18.9331 17.6056 18.9342 17.6046 18.9353 17.6036C18.9356 17.6032 18.9367 17.6022 18.9373 17.6015C18.9387 17.6002 18.94 17.5989 18.9414 17.5976C18.9442 17.595 18.9468 17.5924 18.9493 17.59C18.9545 17.5852 18.9594 17.5806 18.964 17.5765C18.9733 17.5681 18.9817 17.561 18.9891 17.5549C19.0037 17.5429 19.0147 17.5351 19.0217 17.5305C19.0362 17.5209 19.0347 17.5242 19.0151 17.5314C18.9854 17.5423 18.8456 17.5884 18.5537 17.5442C17.9344 17.4503 16.5981 16.9401 14.3948 14.7751L12.7217 16.2584ZM10.3622 1.76234C8.80293 -0.296071 5.6827 -0.643346 3.79633 1.21025L5.46947 2.69353C6.27381 1.90316 7.68981 1.96525 8.47802 3.00574L10.3622 1.76234ZM2.31045 6.71474C2.27749 6.14141 2.54497 5.56721 3.05478 5.06626L1.38164 3.58298C0.557282 4.39302 -0.0692822 5.51828 0.00616144 6.83017L2.31045 6.71474ZM24.9335 25.1105C24.5043 25.5324 24.0553 25.7584 23.6187 25.7986L23.8453 27.942C24.9946 27.8361 25.9247 27.264 26.6067 26.5938L24.9335 25.1105ZM11.9555 9.72121C13.4441 8.25858 13.5494 5.96959 12.3022 4.32316L10.4179 5.56655C11.0674 6.42385 10.9678 7.56447 10.2824 8.23798L11.9555 9.72121ZM26.5518 19.6895C27.8145 20.3679 28.0617 22.0368 27.119 22.9631L28.7922 24.4463C30.7996 22.4736 30.215 19.1724 27.703 17.8229L26.5518 19.6895ZM21.307 18.4004C21.8999 17.8177 22.8239 17.6867 23.6127 18.1105L24.7638 16.2439C23.0739 15.336 20.978 15.5963 19.6339 16.9171L21.307 18.4004Z" fill="#FFAF00"/>
</svg>
