<svg width="31" height="24" viewBox="0 0 31 24" fill="none" xmlns="http://www.w3.org/2000/svg">
<path d="M30.0289 3.36424C29.8932 2.68061 29.59 2.05501 29.1667 1.5382C29.0775 1.4256 28.9842 1.32475 28.8831 1.2239C28.1331 0.470181 27.0804 0 25.9304 0H4.17618C3.02619 0 1.97728 0.470181 1.22373 1.2239C1.12288 1.32475 1.02962 1.4256 0.940126 1.5382C0.516575 2.05495 0.213451 2.68061 0.0814995 3.36424C0.0272841 3.62808 0 3.90075 0 4.17641V19.4551C0 20.0412 0.124307 20.6047 0.345991 21.1135C0.551621 21.5992 0.854804 22.0387 1.22367 22.4072C1.31716 22.5005 1.41001 22.5862 1.51133 22.6715C2.23377 23.2698 3.16631 23.6311 4.17618 23.6311H25.9304C26.9407 23.6311 27.8773 23.2698 28.5955 22.6677C28.6965 22.5862 28.7899 22.5005 28.8831 22.4072C29.2518 22.0387 29.5549 21.5992 29.7648 21.1135V21.1097C29.9864 20.6009 30.1066 20.0412 30.1066 19.4552V4.17641C30.1066 3.90075 30.0797 3.62808 30.0289 3.36424ZM2.73482 2.73482C3.10792 2.36213 3.60897 2.13651 4.17618 2.13651H25.9304C26.4976 2.13651 27.0031 2.36213 27.3718 2.73482C27.4378 2.80121 27.4999 2.87518 27.5548 2.94868L16.1527 12.8859C15.8382 13.1615 15.4497 13.2977 15.0533 13.2977C14.6609 13.2977 14.2727 13.1615 13.954 12.8859L2.55624 2.94445C2.60669 2.87095 2.66885 2.80121 2.73482 2.73482ZM2.13651 19.4551V5.15535L10.3878 12.3536L2.14069 19.5442C2.13651 19.5169 2.13651 19.4862 2.13651 19.4551ZM25.9304 21.4942H4.17618C3.80684 21.4942 3.46126 21.3971 3.16631 21.2265L11.8677 13.6435L12.6801 14.3502C13.3599 14.9409 14.2106 15.2401 15.0533 15.2401C15.9004 15.2401 16.751 14.9409 17.4308 14.3502L18.2427 13.6435L26.9407 21.2265C26.6454 21.3971 26.2998 21.4942 25.9304 21.4942ZM27.9701 19.4551C27.9701 19.4862 27.9701 19.5169 27.9661 19.5442L19.719 12.3578L27.9701 5.15917V19.4551Z" fill="#FFAF00"/>
</svg>
