<svg xmlns="http://www.w3.org/2000/svg" xmlns:xlink="http://www.w3.org/1999/xlink" width="320" zoomAndPan="magnify" viewBox="0 0 240 239.999995" height="320" preserveAspectRatio="xMidYMid meet" version="1.0"><defs><clipPath id="beaf18f34b"><path d="M 25 44 L 206 44 L 206 221 L 25 221 Z M 25 44 " clip-rule="nonzero"/></clipPath><clipPath id="fcbf6f9211"><path d="M 32.21875 -8.730469 L 239.75 11.332031 L 217.667969 239.765625 L 10.136719 219.703125 Z M 32.21875 -8.730469 " clip-rule="nonzero"/></clipPath><clipPath id="2fb3ad72a6"><path d="M 32.21875 -8.730469 L 239.75 11.332031 L 217.667969 239.765625 L 10.136719 219.703125 Z M 32.21875 -8.730469 " clip-rule="nonzero"/></clipPath><clipPath id="3036eb728e"><path d="M 32.21875 -8.730469 L 239.75 11.332031 L 217.667969 239.765625 L 10.136719 219.703125 Z M 32.21875 -8.730469 " clip-rule="nonzero"/></clipPath><clipPath id="4ab8b8d9ce"><path d="M 26 38 L 209 38 L 209 217 L 26 217 Z M 26 38 " clip-rule="nonzero"/></clipPath><clipPath id="8aa6741dae"><path d="M 32.21875 -8.730469 L 239.75 11.332031 L 217.667969 239.765625 L 10.136719 219.703125 Z M 32.21875 -8.730469 " clip-rule="nonzero"/></clipPath><clipPath id="304268e97e"><path d="M 32.21875 -8.730469 L 239.75 11.332031 L 217.667969 239.765625 L 10.136719 219.703125 Z M 32.21875 -8.730469 " clip-rule="nonzero"/></clipPath><clipPath id="ff30d5499f"><path d="M 32.21875 -8.730469 L 239.75 11.332031 L 217.667969 239.765625 L 10.136719 219.703125 Z M 32.21875 -8.730469 " clip-rule="nonzero"/></clipPath><clipPath id="ef5352b715"><path d="M 36 6 L 208 6 L 208 214 L 36 214 Z M 36 6 " clip-rule="nonzero"/></clipPath><clipPath id="04c66bb481"><path d="M 32.21875 -8.730469 L 239.75 11.332031 L 217.667969 239.765625 L 10.136719 219.703125 Z M 32.21875 -8.730469 " clip-rule="nonzero"/></clipPath><clipPath id="1925b3314d"><path d="M 32.21875 -8.730469 L 239.75 11.332031 L 217.667969 239.765625 L 10.136719 219.703125 Z M 32.21875 -8.730469 " clip-rule="nonzero"/></clipPath><clipPath id="68cf27d7f7"><path d="M 32.21875 -8.730469 L 239.75 11.332031 L 217.667969 239.765625 L 10.136719 219.703125 Z M 32.21875 -8.730469 " clip-rule="nonzero"/></clipPath><clipPath id="e34f9c05fb"><path d="M 224 115 L 228 115 L 228 125 L 224 125 Z M 224 115 " clip-rule="nonzero"/></clipPath><clipPath id="9d850397be"><path d="M 32.21875 -8.730469 L 239.75 11.332031 L 217.667969 239.765625 L 10.136719 219.703125 Z M 32.21875 -8.730469 " clip-rule="nonzero"/></clipPath><clipPath id="b88fab96f1"><path d="M 32.21875 -8.730469 L 239.75 11.332031 L 217.667969 239.765625 L 10.136719 219.703125 Z M 32.21875 -8.730469 " clip-rule="nonzero"/></clipPath><clipPath id="d5322d376b"><path d="M 32.21875 -8.730469 L 239.75 11.332031 L 217.667969 239.765625 L 10.136719 219.703125 Z M 32.21875 -8.730469 " clip-rule="nonzero"/></clipPath><clipPath id="c5cb66c6cc"><path d="M 209 134 L 228 134 L 228 178 L 209 178 Z M 209 134 " clip-rule="nonzero"/></clipPath><clipPath id="7a1e44470a"><path d="M 32.21875 -8.730469 L 239.75 11.332031 L 217.667969 239.765625 L 10.136719 219.703125 Z M 32.21875 -8.730469 " clip-rule="nonzero"/></clipPath><clipPath id="980a2e95db"><path d="M 32.21875 -8.730469 L 239.75 11.332031 L 217.667969 239.765625 L 10.136719 219.703125 Z M 32.21875 -8.730469 " clip-rule="nonzero"/></clipPath><clipPath id="cb822e05fc"><path d="M 32.21875 -8.730469 L 239.75 11.332031 L 217.667969 239.765625 L 10.136719 219.703125 Z M 32.21875 -8.730469 " clip-rule="nonzero"/></clipPath><clipPath id="5debd82936"><path d="M 51 8 L 222 8 L 222 213 L 51 213 Z M 51 8 " clip-rule="nonzero"/></clipPath><clipPath id="680ffe800f"><path d="M 32.21875 -8.730469 L 239.75 11.332031 L 217.667969 239.765625 L 10.136719 219.703125 Z M 32.21875 -8.730469 " clip-rule="nonzero"/></clipPath><clipPath id="c02ef01b67"><path d="M 32.21875 -8.730469 L 239.75 11.332031 L 217.667969 239.765625 L 10.136719 219.703125 Z M 32.21875 -8.730469 " clip-rule="nonzero"/></clipPath><clipPath id="580bbaa2cb"><path d="M 32.21875 -8.730469 L 239.75 11.332031 L 217.667969 239.765625 L 10.136719 219.703125 Z M 32.21875 -8.730469 " clip-rule="nonzero"/></clipPath><clipPath id="b754fb2b75"><path d="M 221 108 L 225 108 L 225 112 L 221 112 Z M 221 108 " clip-rule="nonzero"/></clipPath><clipPath id="991cc28b33"><path d="M 32.21875 -8.730469 L 239.75 11.332031 L 217.667969 239.765625 L 10.136719 219.703125 Z M 32.21875 -8.730469 " clip-rule="nonzero"/></clipPath><clipPath id="e6c0053d84"><path d="M 32.21875 -8.730469 L 239.75 11.332031 L 217.667969 239.765625 L 10.136719 219.703125 Z M 32.21875 -8.730469 " clip-rule="nonzero"/></clipPath><clipPath id="6e07a53f49"><path d="M 32.21875 -8.730469 L 239.75 11.332031 L 217.667969 239.765625 L 10.136719 219.703125 Z M 32.21875 -8.730469 " clip-rule="nonzero"/></clipPath><clipPath id="6e43838c8e"><path d="M 200 186 L 205 186 L 205 190 L 200 190 Z M 200 186 " clip-rule="nonzero"/></clipPath><clipPath id="a5465f51e4"><path d="M 32.21875 -8.730469 L 239.75 11.332031 L 217.667969 239.765625 L 10.136719 219.703125 Z M 32.21875 -8.730469 " clip-rule="nonzero"/></clipPath><clipPath id="a4b1b9f52d"><path d="M 32.21875 -8.730469 L 239.75 11.332031 L 217.667969 239.765625 L 10.136719 219.703125 Z M 32.21875 -8.730469 " clip-rule="nonzero"/></clipPath><clipPath id="e300239040"><path d="M 32.21875 -8.730469 L 239.75 11.332031 L 217.667969 239.765625 L 10.136719 219.703125 Z M 32.21875 -8.730469 " clip-rule="nonzero"/></clipPath><clipPath id="9d6891ab87"><path d="M 29 15 L 48 15 L 48 34 L 29 34 Z M 29 15 " clip-rule="nonzero"/></clipPath><clipPath id="68dd0c29d4"><path d="M 32.21875 -8.730469 L 239.75 11.332031 L 217.667969 239.765625 L 10.136719 219.703125 Z M 32.21875 -8.730469 " clip-rule="nonzero"/></clipPath><clipPath id="4e4ee8f6ea"><path d="M 32.21875 -8.730469 L 239.75 11.332031 L 217.667969 239.765625 L 10.136719 219.703125 Z M 32.21875 -8.730469 " clip-rule="nonzero"/></clipPath><clipPath id="21ab2ccfc2"><path d="M 32.21875 -8.730469 L 239.75 11.332031 L 217.667969 239.765625 L 10.136719 219.703125 Z M 32.21875 -8.730469 " clip-rule="nonzero"/></clipPath><clipPath id="9fad7eab66"><path d="M 141 26 L 174 26 L 174 60 L 141 60 Z M 141 26 " clip-rule="nonzero"/></clipPath><clipPath id="831c7ddad7"><path d="M 32.21875 -8.730469 L 239.75 11.332031 L 217.667969 239.765625 L 10.136719 219.703125 Z M 32.21875 -8.730469 " clip-rule="nonzero"/></clipPath><clipPath id="e644a92740"><path d="M 32.21875 -8.730469 L 239.75 11.332031 L 217.667969 239.765625 L 10.136719 219.703125 Z M 32.21875 -8.730469 " clip-rule="nonzero"/></clipPath><clipPath id="c036f6feda"><path d="M 32.21875 -8.730469 L 239.75 11.332031 L 217.667969 239.765625 L 10.136719 219.703125 Z M 32.21875 -8.730469 " clip-rule="nonzero"/></clipPath><clipPath id="b6b944ea98"><path d="M 22 163 L 45 163 L 45 186 L 22 186 Z M 22 163 " clip-rule="nonzero"/></clipPath><clipPath id="819ecc8380"><path d="M 32.21875 -8.730469 L 239.75 11.332031 L 217.667969 239.765625 L 10.136719 219.703125 Z M 32.21875 -8.730469 " clip-rule="nonzero"/></clipPath><clipPath id="8104e70f19"><path d="M 32.21875 -8.730469 L 239.75 11.332031 L 217.667969 239.765625 L 10.136719 219.703125 Z M 32.21875 -8.730469 " clip-rule="nonzero"/></clipPath><clipPath id="f72eb399a8"><path d="M 32.21875 -8.730469 L 239.75 11.332031 L 217.667969 239.765625 L 10.136719 219.703125 Z M 32.21875 -8.730469 " clip-rule="nonzero"/></clipPath><clipPath id="a0a0fb4c0e"><path d="M 21 144 L 32 144 L 32 155 L 21 155 Z M 21 144 " clip-rule="nonzero"/></clipPath><clipPath id="0fbb819168"><path d="M 32.21875 -8.730469 L 239.75 11.332031 L 217.667969 239.765625 L 10.136719 219.703125 Z M 32.21875 -8.730469 " clip-rule="nonzero"/></clipPath><clipPath id="b134f4b7ba"><path d="M 32.21875 -8.730469 L 239.75 11.332031 L 217.667969 239.765625 L 10.136719 219.703125 Z M 32.21875 -8.730469 " clip-rule="nonzero"/></clipPath><clipPath id="b2c700fbe7"><path d="M 32.21875 -8.730469 L 239.75 11.332031 L 217.667969 239.765625 L 10.136719 219.703125 Z M 32.21875 -8.730469 " clip-rule="nonzero"/></clipPath><clipPath id="b04a948984"><path d="M 53.9375 24 L 196 24 L 196 235 L 53.9375 235 Z M 53.9375 24 " clip-rule="nonzero"/></clipPath><clipPath id="f6159fbad5"><path d="M 53.9375 24 L 196 24 L 196 235 L 53.9375 235 Z M 53.9375 24 " clip-rule="nonzero"/></clipPath></defs><rect x="-24" width="288" fill="#ffffff" y="-23.999999" height="287.999994" fill-opacity="1"/><rect x="-24" width="288" fill="#ffffff" y="-23.999999" height="287.999994" fill-opacity="1"/><g clip-path="url(#beaf18f34b)"><g clip-path="url(#fcbf6f9211)"><g clip-path="url(#2fb3ad72a6)"><g clip-path="url(#3036eb728e)"><path fill="#ffaf00" d="M 117.371094 208.871094 C 128.664062 197.488281 132.382812 180.128906 143.925781 169 C 154.164062 159.128906 168.925781 155.679688 180.726562 147.75 C 200.5625 134.429688 210.144531 107.566406 203.21875 84.695312 C 196.292969 61.824219 173.421875 44.796875 149.53125 44.730469 C 134.28125 44.6875 119.585938 50.804688 104.351562 51.332031 C 82.214844 52.101562 57.386719 41.6875 39.464844 54.707031 C 25.816406 64.617188 23.214844 84.386719 27.183594 100.777344 C 31.566406 118.871094 42.285156 134.566406 47.359375 152.398438 C 51.433594 166.726562 50.308594 181.957031 54.171875 196.246094 C 61.582031 223.660156 98.339844 228.050781 117.371094 208.871094 " fill-opacity="1" fill-rule="nonzero"/></g></g></g></g><g clip-path="url(#4ab8b8d9ce)"><g clip-path="url(#8aa6741dae)"><g clip-path="url(#304268e97e)"><g clip-path="url(#ff30d5499f)"><path fill="#ffaf00" d="M 74.707031 44.671875 C 62.660156 43.507812 51.433594 43.738281 42.082031 50.539062 C 27.792969 60.910156 26.757812 81.242188 30.210938 95.5 C 32.5 104.960938 36.640625 113.960938 40.632812 122.664062 C 44.238281 130.5 47.964844 138.597656 50.371094 147.078125 C 52.472656 154.476562 53.222656 162.183594 53.941406 169.636719 C 54.613281 176.707031 55.316406 184.023438 57.195312 190.945312 C 60.183594 202.019531 68.566406 210.136719 80.1875 213.214844 C 93.816406 216.808594 108.914062 212.855469 118.609375 203.089844 C 124.042969 197.609375 127.785156 190.53125 131.410156 183.683594 C 135.230469 176.457031 139.179688 168.980469 145.175781 163.203125 C 151.371094 157.226562 159.253906 153.527344 166.886719 149.949219 C 172.046875 147.527344 177.394531 145.019531 182.125 141.839844 C 201.449219 128.859375 210.941406 102.265625 204.195312 79.980469 C 197.445312 57.691406 174.722656 40.804688 151.523438 40.765625 C 143.644531 40.746094 135.734375 42.429688 128.085938 44.058594 C 121.027344 45.5625 113.726562 47.113281 106.375 47.367188 C 99.117188 47.621094 91.496094 46.660156 84.132812 45.761719 C 80.945312 45.363281 77.796875 44.972656 74.707031 44.671875 Z M 86.28125 216.460938 C 84.050781 216.246094 81.832031 215.855469 79.644531 215.277344 C 67.269531 211.996094 58.335938 203.328125 55.136719 191.496094 C 53.222656 184.40625 52.507812 177 51.8125 169.84375 C 51.105469 162.484375 50.378906 154.867188 48.332031 147.664062 C 45.960938 139.339844 42.269531 131.3125 38.699219 123.550781 C 34.664062 114.761719 30.480469 105.664062 28.136719 96 C 24.539062 81.101562 25.695312 59.808594 40.832031 48.820312 C 53.269531 39.765625 69.132812 41.753906 84.398438 43.644531 C 91.6875 44.5625 99.207031 45.496094 106.308594 45.242188 C 113.476562 44.992188 120.667969 43.460938 127.636719 41.976562 C 135.394531 40.324219 143.421875 38.617188 151.519531 38.636719 C 153.128906 38.640625 154.714844 38.722656 156.308594 38.875 C 178.738281 41.046875 199.683594 57.742188 206.234375 79.359375 C 213.234375 102.507812 203.382812 130.128906 183.3125 143.605469 C 178.445312 146.882812 173.023438 149.421875 167.785156 151.878906 C 160.316406 155.382812 152.597656 159.007812 146.65625 164.734375 C 140.902344 170.28125 137.03125 177.601562 133.289062 184.679688 C 129.597656 191.664062 125.777344 198.886719 120.113281 204.59375 C 111.449219 213.320312 98.710938 217.664062 86.28125 216.460938 " fill-opacity="1" fill-rule="nonzero"/></g></g></g></g><g clip-path="url(#ef5352b715)"><g clip-path="url(#04c66bb481)"><g clip-path="url(#1925b3314d)"><g clip-path="url(#68cf27d7f7)"><path fill="#fece00" d="M 65.09375 188.148438 C 86.085938 209.035156 115.542969 218.574219 144.492188 211.6875 C 172.824219 204.953125 197.082031 182.441406 205.023438 154.417969 C 209.425781 138.886719 208.808594 121.511719 201.019531 107.371094 C 190.371094 88.042969 168.390625 77.679688 146.824219 73.007812 C 124.046875 68.078125 108.632812 56.304688 105.605469 32.398438 C 102.597656 8.636719 89.09375 -3.125 70.308594 15.824219 C 56.808594 29.445312 49.742188 50.429688 43.914062 68.269531 C 32.085938 104.480469 33.832031 151.101562 58.945312 181.414062 C 60.902344 183.773438 62.953125 186.023438 65.09375 188.148438 " fill-opacity="1" fill-rule="nonzero"/></g></g></g></g><g clip-path="url(#e34f9c05fb)"><g clip-path="url(#9d850397be)"><g clip-path="url(#b88fab96f1)"><g clip-path="url(#d5322d376b)"><path fill="#fece00" d="M 226.402344 124.699219 C 225.90625 124.652344 225.496094 124.257812 225.453125 123.746094 C 225.207031 121.304688 224.835938 118.882812 224.351562 116.550781 C 224.230469 115.972656 224.609375 115.410156 225.183594 115.289062 C 225.765625 115.195312 226.316406 115.539062 226.441406 116.113281 C 226.9375 118.523438 227.3125 121.019531 227.558594 123.53125 C 227.621094 124.117188 227.191406 124.640625 226.613281 124.699219 C 226.539062 124.707031 226.464844 124.707031 226.402344 124.699219 " fill-opacity="1" fill-rule="nonzero"/></g></g></g></g><g clip-path="url(#c5cb66c6cc)"><g clip-path="url(#7a1e44470a)"><g clip-path="url(#980a2e95db)"><g clip-path="url(#cb822e05fc)"><path fill="#fece00" d="M 210.914062 177.917969 C 210.726562 177.898438 210.546875 177.828125 210.390625 177.714844 C 209.914062 177.367188 209.8125 176.695312 210.160156 176.222656 C 218.199219 165.292969 223.378906 152.761719 225.113281 139.980469 C 225.300781 138.570312 225.453125 137.136719 225.558594 135.707031 C 225.59375 135.121094 226.105469 134.683594 226.695312 134.726562 L 226.71875 134.726562 C 227.296875 134.785156 227.714844 135.289062 227.671875 135.871094 C 227.5625 137.339844 227.410156 138.804688 227.214844 140.265625 C 225.4375 153.398438 220.132812 166.265625 211.875 177.484375 C 211.648438 177.796875 211.277344 177.953125 210.914062 177.917969 " fill-opacity="1" fill-rule="nonzero"/></g></g></g></g><g clip-path="url(#5debd82936)"><g clip-path="url(#680ffe800f)"><g clip-path="url(#c02ef01b67)"><g clip-path="url(#580bbaa2cb)"><path fill="#fece00" d="M 136.449219 211.683594 C 120.742188 210.167969 105.292969 204.234375 91.75 194.128906 C 89.296875 192.292969 86.910156 190.320312 84.636719 188.261719 C 52.386719 158.96875 47.691406 110.230469 53.464844 77.398438 C 56.4375 60.464844 60.515625 37.269531 72.382812 21.300781 C 81.035156 9.667969 88.632812 8.296875 93.28125 9.207031 C 101.132812 10.683594 107.796875 19.386719 111.546875 33.082031 C 117.078125 53.269531 131.257812 64.214844 154.871094 66.496094 C 155.613281 66.570312 156.371094 66.628906 157.128906 66.683594 C 158.226562 66.761719 159.335938 66.855469 160.460938 66.960938 C 178.910156 68.746094 202.445312 74.921875 216.40625 93.480469 C 218.441406 96.175781 220.257812 99.179688 221.816406 102.394531 C 222.066406 102.917969 221.839844 103.554688 221.3125 103.808594 C 220.789062 104.058594 220.140625 103.84375 219.890625 103.3125 C 218.40625 100.226562 216.65625 97.34375 214.714844 94.757812 C 200.355469 75.707031 175.316406 70.179688 156.984375 68.808594 C 130.929688 67.015625 115.46875 55.441406 109.488281 33.648438 C 105.964844 20.765625 99.914062 12.621094 92.882812 11.296875 C 86.992188 10.140625 80.421875 14.078125 74.097656 22.574219 C 62.519531 38.132812 58.5 61.042969 55.558594 77.769531 C 49.878906 110.066406 54.453125 157.976562 86.0625 186.6875 C 88.289062 188.699219 90.628906 190.625 93.019531 192.421875 C 117.089844 210.382812 147.3125 214.847656 173.929688 204.378906 C 179.691406 202.109375 185.265625 199.105469 190.503906 195.449219 C 190.964844 195.109375 191.640625 195.226562 191.980469 195.710938 C 192.320312 196.191406 192.195312 196.851562 191.710938 197.195312 C 186.351562 200.945312 180.625 204.03125 174.699219 206.359375 C 162.402344 211.203125 149.347656 212.933594 136.449219 211.683594 " fill-opacity="1" fill-rule="nonzero"/></g></g></g></g><g clip-path="url(#b754fb2b75)"><g clip-path="url(#991cc28b33)"><g clip-path="url(#e6c0053d84)"><g clip-path="url(#6e07a53f49)"><path fill="#fece00" d="M 224.882812 109.925781 C 224.96875 109.0625 224.335938 108.296875 223.476562 108.214844 C 222.617188 108.128906 221.851562 108.761719 221.769531 109.625 C 221.683594 110.484375 222.3125 111.25 223.175781 111.332031 C 224.035156 111.417969 224.800781 110.785156 224.882812 109.925781 " fill-opacity="1" fill-rule="nonzero"/></g></g></g></g><g clip-path="url(#6e43838c8e)"><g clip-path="url(#a5465f51e4)"><g clip-path="url(#a4b1b9f52d)"><g clip-path="url(#e300239040)"><path fill="#fece00" d="M 204.117188 187.96875 C 204.199219 187.105469 203.566406 186.339844 202.707031 186.257812 C 201.847656 186.175781 201.082031 186.804688 201 187.667969 C 200.914062 188.527344 201.546875 189.292969 202.40625 189.375 C 203.265625 189.460938 204.035156 188.828125 204.117188 187.96875 " fill-opacity="1" fill-rule="nonzero"/></g></g></g></g><g clip-path="url(#9d6891ab87)"><g clip-path="url(#68dd0c29d4)"><g clip-path="url(#4e4ee8f6ea)"><g clip-path="url(#21ab2ccfc2)"><path fill="#fece00" d="M 47.433594 25.550781 C 47.921875 20.511719 44.234375 16.035156 39.199219 15.550781 C 34.164062 15.0625 29.6875 18.75 29.199219 23.785156 C 28.714844 28.824219 32.402344 33.300781 37.4375 33.785156 C 42.472656 34.273438 46.949219 30.585938 47.433594 25.550781 " fill-opacity="1" fill-rule="nonzero"/></g></g></g></g><g clip-path="url(#9fad7eab66)"><g clip-path="url(#831c7ddad7)"><g clip-path="url(#e644a92740)"><g clip-path="url(#c036f6feda)"><path fill="#fece00" d="M 173.308594 44.476562 C 174.164062 35.625 167.683594 27.757812 158.835938 26.902344 C 149.988281 26.050781 142.121094 32.527344 141.265625 41.378906 C 140.410156 50.230469 146.890625 58.097656 155.738281 58.953125 C 164.585938 59.808594 172.453125 53.328125 173.308594 44.476562 " fill-opacity="1" fill-rule="nonzero"/></g></g></g></g><g clip-path="url(#b6b944ea98)"><g clip-path="url(#819ecc8380)"><g clip-path="url(#8104e70f19)"><g clip-path="url(#f72eb399a8)"><path fill="#ffaf00" d="M 44.589844 175.84375 C 45.179688 169.734375 40.707031 164.300781 34.601562 163.710938 C 28.492188 163.121094 23.0625 167.59375 22.472656 173.703125 C 21.882812 179.8125 26.351562 185.246094 32.460938 185.835938 C 38.570312 186.425781 44 181.949219 44.589844 175.84375 " fill-opacity="1" fill-rule="nonzero"/></g></g></g></g><g clip-path="url(#a0a0fb4c0e)"><g clip-path="url(#0fbb819168)"><g clip-path="url(#b134f4b7ba)"><g clip-path="url(#b2c700fbe7)"><path fill="#fece00" d="M 31.300781 150.21875 C 31.574219 147.414062 29.519531 144.925781 26.71875 144.652344 C 23.914062 144.382812 21.421875 146.433594 21.152344 149.238281 C 20.878906 152.042969 22.933594 154.535156 25.738281 154.808594 C 28.539062 155.078125 31.03125 153.023438 31.300781 150.21875 " fill-opacity="1" fill-rule="nonzero"/></g></g></g></g><g clip-path="url(#b04a948984)"><path fill="#000000" d="M 53.972656 180.957031 C 54.269531 176.070312 55.171875 171.210938 56.945312 166.636719 C 58.816406 161.824219 61.25 157.234375 63.511719 152.609375 C 66.011719 147.480469 68.59375 142.402344 71.253906 137.347656 C 71.234375 137.246094 71.234375 137.132812 71.261719 137.023438 C 71.511719 135.648438 72.902344 134.613281 73.839844 133.660156 C 74.75 132.730469 75.675781 131.8125 76.632812 130.921875 C 78.636719 129.046875 80.738281 127.25 82.9375 125.605469 C 87.011719 122.535156 91.3125 119.859375 95.847656 117.539062 C 92.429688 115.523438 86.890625 111.660156 88.695312 107.03125 C 89.484375 105.039062 91.226562 103.5625 91.953125 101.550781 C 92.832031 99.097656 90.980469 96.574219 91.109375 94.058594 C 91.417969 88.421875 97.167969 85.109375 102.398438 85.433594 C 101.675781 84.015625 101.25 82.523438 101.007812 80.984375 C 98.261719 82.371094 94.402344 81.140625 92.085938 79.433594 C 89.164062 77.289062 87.109375 73.964844 86.175781 70.492188 C 85.257812 67.042969 85.265625 63.085938 86.863281 59.828125 C 88.03125 57.453125 90.304688 56.140625 92.660156 56.25 C 93.726562 56.296875 94.8125 56.636719 95.816406 57.308594 C 97.074219 58.148438 98.191406 59.253906 99.171875 60.496094 C 98.617188 53.8125 98.761719 46.984375 99.0625 40.335938 C 99.230469 36.542969 99.695312 32.789062 101.390625 29.339844 C 102.210938 27.671875 103.3125 26.058594 105.082031 25.328125 C 106.863281 24.59375 108.957031 24.625 110.851562 24.507812 C 119.820312 23.980469 128.789062 24.472656 137.75 25.058594 C 143.917969 25.472656 155.140625 26.53125 154.945312 35.015625 C 154.890625 37.277344 154.523438 39.53125 154.371094 41.785156 C 154.191406 44.285156 154.007812 46.792969 153.859375 49.292969 C 153.714844 51.730469 153.582031 54.167969 153.433594 56.609375 C 153.351562 58.097656 153.296875 59.632812 153.15625 61.144531 C 153.1875 61.136719 153.203125 61.113281 153.21875 61.105469 C 155.910156 59.839844 159.214844 60.53125 160.921875 63.039062 C 162.523438 65.394531 162.609375 68.386719 162.171875 71.117188 C 161.679688 74.15625 160.335938 77.152344 158.34375 79.507812 C 156.328125 81.871094 152.359375 84.230469 149.421875 82.316406 C 149.3125 84.054688 149.105469 85.8125 148.457031 87.378906 C 152.136719 90.707031 155.273438 94.789062 158.046875 98.886719 C 159.308594 100.757812 160.585938 102.898438 160.726562 105.226562 C 160.855469 107.480469 159.753906 108.9375 158.277344 110.484375 C 157.492188 111.316406 157.089844 112.117188 157.269531 113.292969 C 157.445312 114.449219 157.945312 115.535156 158.0625 116.703125 C 158.234375 118.222656 157.769531 119.660156 156.914062 120.867188 C 157.394531 121.117188 157.863281 121.414062 158.324219 121.675781 C 159.492188 122.355469 160.65625 123.050781 161.792969 123.773438 C 164.183594 125.292969 166.503906 126.90625 168.746094 128.644531 C 172.375 131.441406 175.769531 134.511719 178.933594 137.824219 C 179.386719 138.296875 179.832031 138.769531 180.277344 139.25 C 180.582031 139.453125 180.792969 139.777344 180.769531 140.175781 C 180.367188 145.445312 182.003906 150.8125 183.976562 155.632812 C 186 160.578125 188.421875 165.347656 190.617188 170.214844 C 192.816406 175.078125 194.847656 180.109375 195.515625 185.441406 C 196.140625 190.417969 195.347656 195.601562 193.789062 200.332031 C 192.878906 203.09375 191.691406 205.765625 190.300781 208.316406 C 188.972656 210.761719 187.484375 213.585938 185.332031 215.398438 C 185.128906 215.566406 184.875 215.667969 184.613281 215.714844 C 184.492188 215.800781 184.375 215.882812 184.253906 215.964844 C 178.828125 219.820312 172.945312 223.125 166.796875 225.847656 C 166.742188 225.878906 166.695312 225.902344 166.640625 225.925781 C 156.941406 230.207031 146.570312 233.054688 136.171875 234.257812 C 119.007812 236.234375 101.246094 233.230469 85.332031 226.65625 C 80.839844 224.8125 76.445312 222.691406 72.265625 220.238281 C 67.980469 217.738281 63.777344 215.007812 60.132812 211.625 C 59.882812 211.402344 59.746094 211.164062 59.675781 210.921875 C 59.082031 210.738281 58.589844 210.300781 58.3125 209.726562 C 56.191406 205.375 55.261719 200.621094 54.640625 195.855469 C 53.996094 190.921875 53.667969 185.925781 53.972656 180.957031 Z M 95.386719 69.613281 C 95.402344 69.640625 95.421875 69.613281 95.441406 69.574219 C 95.414062 69.582031 95.386719 69.589844 95.386719 69.613281 Z M 133.328125 63.101562 C 133.328125 63.132812 133.402344 63.109375 133.328125 63.101562 Z M 133.328125 63.101562 " fill-opacity="1" fill-rule="nonzero"/></g><path fill="#d86f23" d="M 88.671875 65.328125 C 88.800781 63.222656 90.042969 58.617188 92.558594 58.617188 C 93.050781 58.617188 93.585938 58.792969 94.171875 59.195312 C 95.683594 60.214844 96.878906 61.816406 97.929688 63.28125 C 99.0625 64.859375 99.953125 66.554688 100.667969 68.351562 C 100.75 68.578125 100.90625 68.742188 101.09375 68.863281 C 101.03125 71.773438 100.691406 74.789062 100.738281 77.726562 C 100.570312 77.734375 100.414062 77.773438 100.285156 77.835938 C 98.679688 78.609375 97.335938 79.164062 95.570312 78.496094 C 93.875 77.847656 92.507812 76.433594 91.464844 75 C 89.449219 72.246094 88.449219 68.734375 88.671875 65.328125 Z M 92.019531 64.605469 C 92.113281 65.183594 92.707031 65.402344 93.214844 65.4375 C 93.214844 65.457031 93.4375 65.503906 93.4375 65.484375 C 93.515625 65.515625 93.585938 65.546875 93.652344 65.578125 C 93.683594 65.59375 93.832031 65.679688 93.839844 65.6875 C 93.933594 65.742188 94.023438 65.816406 94.109375 65.890625 C 94.109375 65.890625 94.109375 65.898438 94.117188 65.898438 C 94.15625 65.945312 94.265625 66.054688 94.273438 66.054688 C 94.359375 66.15625 94.441406 66.246094 94.511719 66.347656 C 94.660156 66.542969 94.761719 66.71875 94.882812 66.960938 C 95.117188 67.421875 95.300781 67.894531 95.414062 68.386719 C 95.476562 68.671875 95.570312 68.996094 95.515625 69.304688 C 95.515625 69.304688 95.507812 69.34375 95.5 69.382812 C 95.265625 69.289062 94.980469 69.1875 94.933594 69.179688 C 94.582031 69.101562 94.21875 69.101562 93.878906 69.21875 C 93.160156 69.449219 92.847656 70.105469 92.804688 70.804688 C 92.757812 71.492188 92.820312 72.1875 92.996094 72.84375 C 93.097656 73.214844 93.210938 73.605469 93.375 73.945312 C 93.460938 74.132812 93.5625 74.308594 93.691406 74.457031 C 93.769531 74.558594 93.847656 74.640625 93.953125 74.71875 C 94.0625 74.816406 94.183594 74.863281 94.316406 74.863281 C 94.453125 75.050781 94.910156 75.042969 95.09375 75.003906 C 95.355469 74.949219 95.527344 74.835938 95.671875 74.617188 C 96.105469 73.929688 95.402344 73.105469 95.214844 72.4375 C 95.117188 72.066406 95.0625 71.6875 95.03125 71.296875 C 95.0625 71.3125 95.085938 71.335938 95.117188 71.34375 C 95.585938 71.519531 96.097656 71.546875 96.582031 71.40625 C 97.507812 71.128906 98.054688 70.296875 98.0625 69.355469 C 98.074219 67.984375 97.394531 66.492188 96.589844 65.40625 C 95.746094 64.257812 94.429688 63.507812 92.972656 63.652344 C 92.472656 63.703125 91.925781 64.027344 92.019531 64.605469 Z M 103.519531 68.832031 C 103.503906 67.851562 103.425781 66.886719 103.277344 65.910156 C 103.457031 65.78125 103.621094 65.648438 103.78125 65.53125 C 104.496094 65.023438 105.191406 64.484375 105.847656 63.917969 C 107.101562 62.84375 108.277344 61.628906 109.152344 60.230469 C 110.160156 58.625 110.625 56.875 110.878906 55.007812 C 111.117188 53.21875 111.332031 51.429688 111.3125 49.621094 C 112.183594 49.808594 113.140625 49.84375 113.945312 49.953125 C 115.503906 50.1875 117.0625 50.402344 118.628906 50.601562 C 121.597656 50.980469 124.574219 51.304688 127.558594 51.519531 C 133.253906 51.921875 138.964844 51.984375 144.621094 51.242188 C 144.289062 54.515625 144.242188 57.789062 144.558594 61.0625 C 144.714844 62.667969 144.890625 64.367188 145.832031 65.726562 C 146.441406 66.605469 147.277344 67.191406 148.242188 67.476562 C 148.378906 67.515625 148.519531 67.554688 148.667969 67.578125 C 148.667969 67.78125 148.757812 67.957031 148.898438 68.117188 C 148.804688 68.203125 148.730469 68.3125 148.703125 68.472656 C 148.203125 72.246094 147.703125 76.027344 147.199219 79.804688 C 147.101562 80.554688 147.03125 81.316406 146.953125 82.066406 C 146.859375 83.023438 146.757812 83.976562 146.582031 84.914062 C 146.257812 86.671875 145.488281 87.9375 144.144531 89.101562 C 143.613281 89.566406 143.070312 90.019531 142.519531 90.453125 C 140.589844 92.03125 138.597656 93.515625 136.65625 95.0625 C 134.359375 96.90625 132.09375 98.9375 129.472656 100.308594 C 127.09375 101.550781 124.554688 102.0625 121.976562 101.125 C 119.5 100.238281 117.453125 98.425781 115.578125 96.628906 C 113.34375 94.46875 111.25 92.160156 109.105469 89.914062 C 107.066406 87.773438 104.976562 85.769531 104.058594 82.871094 C 102.609375 78.316406 103.628906 73.523438 103.519531 68.832031 Z M 122.503906 59.855469 C 121.324219 58.828125 119.664062 58.296875 118.105469 58.371094 C 116.734375 58.4375 114.71875 59.003906 114.210938 60.457031 C 114.171875 60.519531 114.132812 60.597656 114.125 60.6875 C 114.097656 60.796875 114.109375 60.902344 114.125 60.996094 C 114.179688 62.007812 114.960938 62.769531 115.917969 63.09375 C 116.445312 63.269531 117.003906 63.308594 117.550781 63.296875 C 118.03125 63.289062 118.515625 63.25 118.921875 63.332031 C 119.257812 63.398438 119.5 63.488281 119.757812 63.675781 C 120.074219 63.90625 120.3125 64.199219 120.613281 64.445312 C 121.445312 65.101562 122.652344 65.179688 123.445312 64.390625 C 124.859375 62.953125 123.769531 60.957031 122.503906 59.855469 Z M 135.960938 72.921875 C 136.039062 73.144531 136.285156 73.332031 136.480469 73.441406 C 136.675781 73.550781 136.878906 73.617188 137.113281 73.632812 C 137.566406 73.671875 138.023438 73.511719 138.277344 73.117188 C 139.058594 71.9375 139.28125 70.363281 138.863281 69.011719 C 138.789062 68.769531 138.71875 68.601562 138.523438 68.433594 C 138.367188 68.285156 138.199219 68.203125 137.992188 68.140625 C 137.714844 68.054688 137.398438 68.054688 137.121094 68.148438 C 136.878906 68.195312 136.628906 68.277344 136.441406 68.464844 C 136.339844 68.574219 136.257812 68.695312 136.195312 68.832031 C 136.09375 69.046875 136.007812 69.265625 135.933594 69.503906 C 135.878906 69.652344 135.832031 69.796875 135.792969 69.957031 C 135.777344 70.011719 135.757812 70.066406 135.738281 70.125 C 135.722656 70.203125 135.722656 70.265625 135.730469 70.328125 C 135.722656 70.382812 135.714844 70.429688 135.703125 70.484375 C 135.609375 71.328125 135.703125 72.113281 135.960938 72.921875 Z M 135.816406 63.992188 C 136.484375 63.742188 137.140625 63.601562 137.761719 63.765625 C 138.195312 63.875 138.59375 64.144531 139.085938 64.136719 C 139.550781 64.128906 139.996094 63.953125 140.332031 63.636719 C 140.941406 63.074219 141.09375 62.171875 140.746094 61.421875 C 140.078125 59.976562 138.152344 59.207031 136.664062 58.984375 C 135.0625 58.734375 133.371094 59.011719 132.121094 60.105469 C 131.40625 60.773438 130.847656 61.753906 131.046875 62.773438 C 131.230469 63.765625 132.066406 64.582031 133.078125 64.738281 C 134.078125 64.910156 134.921875 64.335938 135.816406 63.992188 Z M 132.242188 75.59375 C 131.621094 74.65625 130.722656 74.003906 129.757812 73.46875 C 129.441406 73.292969 129.042969 73.277344 128.753906 73.507812 C 128.515625 73.703125 128.449219 74.109375 128.71875 74.324219 C 129.867188 75.234375 131.1875 76.585938 130.816406 78.191406 C 130.738281 78.5 130.554688 78.769531 130.3125 78.988281 C 130.238281 79.050781 130.167969 79.117188 130.089844 79.179688 C 130.074219 79.1875 129.988281 79.242188 129.953125 79.28125 C 129.914062 79.296875 129.820312 79.367188 129.8125 79.367188 C 129.71875 79.421875 129.636719 79.476562 129.542969 79.523438 C 129.1875 79.699219 128.828125 79.808594 128.476562 79.976562 C 128.042969 80.179688 127.726562 80.410156 127.484375 80.832031 C 127.269531 81.203125 127.613281 81.6875 127.984375 81.789062 C 128.503906 81.925781 128.933594 81.972656 129.457031 81.851562 C 129.738281 81.796875 129.988281 81.695312 130.246094 81.582031 C 130.625 81.414062 130.988281 81.21875 131.332031 80.980469 C 132.175781 80.394531 132.769531 79.558594 132.945312 78.539062 C 133.113281 77.523438 132.816406 76.433594 132.242188 75.59375 Z M 113.777344 86.265625 C 114.101562 87.832031 114.917969 89.25 116.074219 90.34375 C 118.578125 92.699219 122.25 93.453125 125.601562 93.238281 C 127.328125 93.117188 129.066406 92.71875 130.40625 91.550781 C 131.433594 90.648438 132.003906 89.121094 132.039062 87.777344 C 132.039062 87.757812 132.03125 87.746094 132.03125 87.730469 C 132.125 86.433594 131.4375 85.085938 130.085938 84.6875 C 129.039062 84.382812 128.140625 84.742188 127.128906 84.976562 C 126.21875 85.175781 125.277344 85.199219 124.359375 85.050781 C 121.261719 84.542969 118.414062 81.210938 115.074219 82.628906 C 113.535156 83.277344 113.488281 84.796875 113.777344 86.265625 Z M 113.75 71.160156 C 114.058594 71.140625 114.289062 71.066406 114.566406 70.957031 C 114.597656 70.9375 114.667969 70.910156 114.699219 70.902344 C 114.726562 70.894531 114.761719 70.871094 114.792969 70.863281 C 115.0625 70.777344 115.339844 70.714844 115.617188 70.648438 C 115.679688 70.632812 115.746094 70.621094 115.8125 70.609375 C 115.828125 70.601562 115.839844 70.601562 115.839844 70.601562 C 115.847656 70.601562 115.855469 70.601562 115.871094 70.601562 C 116 70.585938 116.140625 70.574219 116.269531 70.5625 C 116.285156 70.5625 116.378906 70.554688 116.425781 70.554688 C 116.472656 70.554688 116.519531 70.554688 116.535156 70.5625 C 116.675781 70.574219 116.804688 70.59375 116.945312 70.609375 C 117.074219 70.628906 117.214844 70.65625 117.34375 70.6875 C 117.34375 70.695312 117.59375 70.761719 117.621094 70.769531 C 118.199219 70.964844 118.539062 71.132812 119.03125 71.488281 C 119.449219 71.78125 119.90625 72.171875 120.246094 72.589844 C 120.664062 73.101562 121.890625 72.71875 121.496094 71.996094 C 121.15625 71.371094 120.773438 70.875 120.21875 70.421875 C 119.652344 69.949219 119.011719 69.578125 118.324219 69.308594 C 117.046875 68.800781 115.515625 68.566406 114.152344 68.800781 C 113.402344 68.929688 112.175781 69.226562 112.296875 70.21875 C 112.378906 70.878906 113.171875 71.179688 113.75 71.160156 Z M 114.351562 106.648438 C 114.351562 106.886719 114.277344 107.09375 114.175781 107.25 C 114.191406 107.265625 114.222656 107.285156 114.253906 107.3125 C 116.691406 109.234375 119.160156 111.113281 121.660156 112.960938 C 122.996094 113.933594 124.386719 114.90625 125.535156 116.09375 C 125.738281 115.804688 125.972656 115.527344 126.230469 115.265625 C 127.335938 114.125 128.792969 113.375 130.167969 112.597656 C 131.816406 111.664062 133.476562 110.722656 135.128906 109.789062 C 135.304688 109.695312 135.492188 109.601562 135.667969 109.503906 C 135.558594 109.078125 135.613281 108.613281 135.628906 108.160156 C 135.660156 107.6875 135.683594 107.203125 135.714844 106.730469 C 135.769531 105.65625 135.835938 104.578125 135.898438 103.503906 C 135.953125 102.476562 136.039062 101.453125 136.148438 100.425781 C 136.203125 99.902344 136.285156 99.378906 136.371094 98.859375 C 134.933594 100.046875 133.460938 101.199219 131.863281 102.160156 C 129.277344 103.71875 126.328125 104.515625 123.320312 104.054688 C 120.472656 103.628906 117.902344 102.140625 115.6875 100.351562 C 115.195312 99.949219 114.730469 99.535156 114.269531 99.109375 C 114.324219 100.074219 114.378906 101.046875 114.371094 102.011719 C 114.371094 103.554688 114.363281 105.097656 114.351562 106.648438 Z M 150.328125 68.546875 C 150.652344 68.5 150.921875 68.34375 151.058594 68.054688 C 151.996094 65.957031 153.34375 63.371094 155.929688 63.0625 C 158.398438 62.777344 159.0625 65.957031 159.109375 67.808594 C 159.183594 70.789062 158.160156 73.835938 156.53125 76.304688 C 155.75 77.472656 154.832031 78.621094 153.644531 79.390625 C 152.292969 80.261719 151.121094 80.015625 149.609375 79.902344 C 149.59375 79.890625 149.582031 79.902344 149.5625 79.902344 C 149.824219 76.152344 150.082031 72.410156 150.34375 68.671875 C 150.355469 68.628906 150.339844 68.59375 150.328125 68.546875 Z M 152.917969 76.910156 C 153.566406 76.894531 154.113281 76.429688 154.605469 76.03125 C 155.007812 75.714844 155.347656 75.34375 155.632812 74.917969 C 156.125 74.179688 156.289062 73.191406 156.011719 72.339844 C 155.84375 71.847656 155.566406 71.453125 155.148438 71.136719 C 155.085938 71.089844 155.011719 71.027344 154.933594 71 C 154.972656 70.84375 155.042969 70.542969 155.058594 70.519531 C 155.179688 70.15625 155.328125 69.722656 155.621094 69.460938 C 155.722656 69.367188 155.804688 69.3125 155.945312 69.285156 C 155.960938 69.300781 155.976562 69.3125 156.019531 69.347656 C 156.34375 69.585938 156.875 69.5625 157.1875 69.316406 C 157.464844 69.09375 157.542969 68.621094 157.242188 68.382812 C 156.25 67.558594 154.757812 67.679688 153.914062 68.679688 C 153.554688 69.113281 153.328125 69.605469 153.136719 70.136719 C 152.902344 70.773438 152.804688 71.359375 153.304688 71.917969 C 153.414062 72.039062 153.554688 72.140625 153.683594 72.242188 C 153.730469 72.277344 153.746094 72.285156 153.757812 72.285156 C 153.769531 72.296875 153.777344 72.304688 153.804688 72.332031 C 153.835938 72.378906 153.851562 72.394531 153.859375 72.410156 C 153.890625 72.445312 153.90625 72.484375 153.921875 72.53125 C 153.953125 72.585938 153.960938 72.59375 153.960938 72.59375 C 153.960938 72.601562 153.96875 72.625 153.976562 72.671875 C 154.078125 73.058594 154.023438 73.441406 153.867188 73.765625 C 153.667969 74.183594 153.339844 74.496094 152.980469 74.792969 C 152.8125 74.929688 152.601562 75.0625 152.402344 75.191406 C 152.273438 75.285156 152.132812 75.386719 152.023438 75.5 C 151.984375 75.546875 151.886719 75.769531 151.832031 75.886719 C 151.832031 75.878906 151.832031 75.871094 151.832031 75.859375 C 151.820312 75.886719 151.8125 75.90625 151.8125 75.914062 C 151.820312 75.90625 151.820312 75.894531 151.832031 75.882812 C 151.683594 76.511719 152.300781 76.9375 152.917969 76.910156 Z M 152.917969 76.910156 " fill-opacity="1" fill-rule="nonzero"/><path fill="#fffffd" d="M 123.238281 124.847656 C 123.339844 124.773438 123.453125 124.71875 123.570312 124.679688 C 123.910156 123.28125 124.257812 121.878906 124.636719 120.488281 C 124.449219 120.136719 124.347656 119.71875 124.359375 119.265625 C 124.367188 119.199219 124.375 119.132812 124.375 119.070312 C 124.359375 119.03125 124.328125 118.984375 124.296875 118.949219 C 122.5 119.664062 120.691406 120.320312 118.816406 120.859375 C 117.882812 121.128906 116.945312 121.359375 116 121.585938 C 118.515625 122.445312 120.964844 123.476562 123.238281 124.847656 Z M 127.410156 121.785156 C 127.597656 121.023438 127.78125 120.257812 127.960938 119.496094 C 127.996094 119.339844 128.042969 119.171875 128.082031 119.015625 C 129.972656 120.109375 131.855469 121.214844 133.757812 122.28125 C 131.320312 122.703125 128.953125 123.4375 126.71875 124.503906 C 126.957031 123.597656 127.195312 122.695312 127.410156 121.785156 Z M 123.253906 144.152344 C 123.300781 143.976562 123.347656 143.789062 123.394531 143.613281 C 123.492188 143.152344 123.609375 142.695312 123.707031 142.234375 C 124.125 140.378906 124.488281 138.515625 124.765625 136.640625 C 125.035156 134.804688 125.257812 132.960938 125.414062 131.105469 C 125.515625 131.808594 125.589844 132.503906 125.703125 133.097656 C 126.042969 134.988281 126.386719 136.890625 126.730469 138.785156 C 127.070312 140.683594 127.425781 142.578125 127.804688 144.46875 C 127.820312 144.609375 127.867188 145.078125 127.925781 145.449219 C 127.035156 145.21875 126.144531 144.976562 125.253906 144.746094 C 125.113281 144.699219 124.03125 144.355469 123.253906 144.152344 Z M 109.222656 122.222656 C 113.675781 123.46875 118.238281 124.738281 122.125 127.316406 C 122.273438 127.417969 122.433594 127.492188 122.597656 127.566406 C 122.589844 127.898438 122.578125 128.242188 122.558594 128.566406 C 122.503906 129.546875 122.4375 130.523438 122.34375 131.507812 C 122.335938 131.617188 122.328125 131.730469 122.316406 131.839844 C 121.773438 133.328125 121.007812 134.742188 120.050781 136.003906 C 118.816406 137.617188 117.257812 138.988281 115.453125 139.972656 C 111.894531 141.910156 107.597656 142.242188 103.777344 140.890625 C 100.289062 139.65625 97.648438 136.847656 94.261719 135.410156 C 90.488281 133.8125 86.421875 134.167969 82.871094 136.179688 C 81.0625 137.207031 79.496094 138.527344 78.054688 140.03125 C 77.40625 140.714844 76.582031 141.496094 75.878906 142.335938 C 75.5625 141.734375 75.265625 141.113281 74.976562 140.492188 C 74.699219 139.871094 74.429688 139.25 74.1875 138.609375 C 74.105469 138.410156 73.964844 138.25 73.789062 138.128906 C 74.921875 137.519531 75.734375 136.449219 76.652344 135.523438 C 77.570312 134.605469 78.507812 133.703125 79.453125 132.808594 C 81.367188 131 83.34375 129.28125 85.363281 127.597656 C 89.308594 124.316406 93.527344 121.355469 97.847656 118.59375 C 101.441406 120.265625 105.464844 121.175781 109.222656 122.222656 Z M 112.238281 101.757812 C 112.109375 102.96875 112 104.1875 111.875 105.414062 C 110.179688 104.0625 108.503906 102.6875 106.820312 101.316406 C 105.640625 100.34375 104.457031 99.378906 103.308594 98.375 C 102.242188 97.441406 100.683594 96.046875 101.1875 94.472656 C 101.445312 93.648438 100.050781 93.222656 99.71875 93.960938 C 98.578125 96.5 100.554688 98.753906 102.351562 100.359375 C 104.875 102.621094 107.445312 104.8125 110.070312 106.949219 C 112.695312 109.101562 115.355469 111.195312 118.046875 113.253906 C 119.613281 114.457031 121.441406 115.609375 122.871094 117.074219 C 121.089844 117.472656 119.296875 117.84375 117.507812 118.230469 C 116.386719 118.472656 115.273438 118.726562 114.160156 118.957031 C 112.910156 119.21875 111.636719 119.382812 110.429688 119.835938 C 110.414062 119.84375 110.402344 119.867188 110.386719 119.867188 C 110.230469 119.820312 110.078125 119.78125 109.921875 119.734375 C 106.082031 118.671875 102.226562 117.613281 98.664062 115.785156 C 96.78125 114.820312 94.996094 113.792969 93.414062 112.367188 C 91.746094 110.875 90.898438 109.269531 92.078125 107.191406 C 93.015625 105.53125 94.378906 104.121094 94.988281 102.277344 C 95.769531 99.882812 94.542969 97.824219 94.210938 95.507812 C 93.878906 93.207031 94.972656 90.871094 96.695312 89.390625 C 98.4375 87.898438 100.46875 87.3125 102.640625 86.960938 C 102.832031 86.921875 103.039062 86.894531 103.234375 86.867188 C 104.890625 89.378906 107.109375 91.539062 109.144531 93.757812 C 110.355469 95.082031 111.566406 96.425781 112.832031 97.714844 C 112.777344 98.085938 112.710938 98.457031 112.65625 98.835938 C 112.496094 99.804688 112.332031 100.777344 112.238281 101.757812 Z M 57.933594 179.527344 C 58.367188 174.742188 59.601562 170.117188 61.390625 165.664062 C 63.265625 161 65.492188 156.457031 67.589844 151.886719 C 69.277344 148.222656 70.882812 144.523438 72.464844 140.820312 C 73.023438 142.324219 73.671875 143.789062 74.425781 145.1875 C 74.460938 145.484375 74.628906 145.734375 74.859375 145.9375 C 76.5 148.824219 78.546875 151.464844 80.980469 153.785156 C 82.855469 155.574219 84.984375 156.925781 87.015625 158.511719 C 87.988281 159.277344 88.796875 160.117188 89.148438 161.332031 C 89.496094 162.542969 89.417969 163.890625 89.324219 165.132812 C 88.824219 171.839844 88.117188 178.535156 87.46875 185.21875 C 86.859375 191.496094 86.265625 197.78125 85.679688 204.058594 C 85.371094 207.277344 85.078125 210.492188 84.777344 213.710938 C 84.621094 215.398438 84.460938 217.085938 84.308594 218.765625 C 84.199219 219.953125 84.027344 221.148438 84.011719 222.335938 C 83.910156 222.296875 83.816406 222.25 83.726562 222.214844 C 76.007812 218.765625 69.09375 214.121094 62.023438 209.558594 C 62.015625 209.558594 62.015625 209.558594 62.015625 209.558594 C 62 209.4375 61.976562 209.308594 61.914062 209.1875 C 59.675781 204.347656 58.789062 199.050781 58.210938 193.796875 C 57.695312 189.058594 57.5 184.273438 57.933594 179.527344 Z M 88.78125 213.121094 C 89.085938 209.433594 89.382812 205.730469 89.691406 202.042969 C 89.875 199.828125 90.042969 197.621094 90.222656 195.40625 C 97.289062 192.402344 100.453125 185.027344 103.519531 178.507812 C 106.359375 172.472656 110.203125 165.933594 117.496094 165.15625 C 121.4375 164.730469 125.40625 165.617188 129.359375 165.5625 C 132.929688 165.507812 136.386719 164.722656 139.53125 162.984375 C 145.542969 159.667969 149.824219 154.019531 152.246094 147.667969 C 155.140625 140.085938 155.527344 131.851562 155.84375 123.828125 C 155.84375 123.765625 155.851562 123.699219 155.851562 123.636719 C 156.148438 123.773438 156.429688 123.921875 156.695312 124.070312 C 157.875 124.726562 159.050781 125.414062 160.199219 126.121094 C 162.398438 127.464844 164.550781 128.902344 166.644531 130.402344 C 170.25 132.988281 173.703125 135.820312 176.957031 138.828125 C 177.417969 139.261719 177.882812 139.703125 178.339844 140.136719 C 178.238281 141.175781 178.199219 142.203125 178.246094 143.222656 C 177.605469 143.730469 176.964844 144.25 176.332031 144.773438 C 171.871094 148.390625 167.417969 152.070312 163.160156 155.90625 C 161.175781 157.703125 160.007812 159.71875 159.84375 162.417969 C 159.65625 165.246094 160.042969 168.148438 160.257812 170.964844 C 160.621094 175.804688 160.984375 180.65625 161.34375 185.496094 C 161.144531 185.578125 160.964844 185.71875 160.867188 185.941406 C 158.417969 191.152344 154.667969 195.632812 150.089844 199.097656 C 146.140625 202.082031 141.511719 204.214844 136.660156 205.238281 C 130.8125 206.464844 124.746094 206.378906 118.949219 207.9375 C 113.910156 209.28125 109.488281 211.980469 105.992188 215.835938 C 104.386719 217.609375 103.042969 219.59375 101.996094 221.734375 C 101.128906 223.476562 99.941406 225.851562 99.925781 227.945312 C 95.789062 226.851562 91.714844 225.5 87.738281 223.902344 C 88.164062 222.128906 88.195312 220.238281 88.34375 218.421875 C 88.492188 216.65625 88.632812 214.890625 88.78125 213.121094 Z M 167.265625 155.996094 C 170.796875 152.777344 174.300781 149.558594 177.761719 146.28125 C 177.992188 146.054688 178.222656 145.847656 178.457031 145.621094 C 178.957031 149.257812 180.207031 152.796875 181.621094 156.230469 C 185.578125 165.84375 191.71875 175.128906 192.359375 185.765625 C 192.667969 190.78125 191.867188 195.679688 190.125 200.386719 C 189.234375 202.816406 188.109375 205.152344 186.804688 207.386719 C 185.554688 209.554688 183.828125 211.539062 182.769531 213.804688 C 182.769531 213.804688 182.769531 213.8125 182.761719 213.820312 C 177.652344 216.796875 172.410156 219.589844 167.011719 222.015625 C 166.796875 219.570312 166.695312 217.101562 166.519531 214.664062 C 166.285156 211.4375 166.148438 208.210938 165.917969 204.992188 C 165.105469 193.457031 164.300781 181.925781 163.484375 170.390625 C 163.300781 167.671875 162.722656 164.761719 163.070312 162.054688 C 163.421875 159.3125 165.351562 157.746094 167.265625 155.996094 Z M 154.40625 111.886719 C 154.136719 113.96875 155.613281 115.945312 155.078125 118.011719 C 154.613281 119.75 152.992188 121.089844 151.328125 121.640625 C 148.953125 122.433594 146.179688 121.992188 143.734375 121.855469 C 141.480469 121.722656 139.21875 121.730469 136.964844 121.890625 C 136.949219 121.890625 136.933594 121.890625 136.917969 121.890625 C 135.589844 121.003906 134.246094 120.132812 132.882812 119.285156 C 132.085938 118.792969 131.285156 118.292969 130.5 117.800781 C 129.988281 117.488281 129.472656 117.109375 128.933594 116.808594 C 130.15625 115.707031 131.855469 114.898438 133.105469 114.183594 C 135.945312 112.550781 138.78125 110.921875 141.59375 109.242188 C 144.238281 107.65625 147.121094 106.085938 149.542969 104.179688 C 150.46875 103.4375 151.027344 102.511719 150.988281 101.304688 C 150.949219 99.96875 150.355469 98.71875 150.585938 97.371094 C 150.625 97.175781 150.558594 97.015625 150.449219 96.90625 C 150.085938 96.519531 149.152344 96.566406 149.011719 97.183594 C 148.679688 98.667969 149.46875 100.125 149.179688 101.566406 C 148.863281 103.171875 146.296875 103.867188 144.996094 104.523438 C 142.726562 105.691406 140.460938 106.878906 138.230469 108.09375 C 138.21875 107.695312 138.199219 107.308594 138.210938 106.960938 C 138.242188 105.914062 138.273438 104.867188 138.304688 103.820312 C 138.332031 102.765625 138.332031 101.714844 138.3125 100.660156 C 138.296875 100 138.238281 99.351562 138.191406 98.699219 C 138.152344 98.285156 138.128906 97.859375 138.105469 97.441406 C 138.105469 97.425781 138.097656 97.410156 138.097656 97.394531 C 138.578125 96.984375 139.0625 96.570312 139.554688 96.160156 C 141.066406 94.878906 142.570312 93.59375 144.078125 92.3125 C 145.175781 91.375 146.324219 90.476562 147.25 89.371094 C 149.058594 91.484375 150.933594 93.5625 152.667969 95.742188 C 154.03125 97.441406 155.300781 99.191406 156.40625 101.058594 C 157.433594 102.808594 158.566406 105.242188 157.480469 107.214844 C 156.542969 108.925781 154.675781 109.78125 154.40625 111.886719 Z M 128.816406 88.191406 C 128.753906 88.210938 128.695312 88.238281 128.632812 88.257812 C 128.347656 88.355469 128.046875 88.425781 127.753906 88.503906 C 127.457031 88.582031 127.167969 88.679688 126.863281 88.753906 C 126.476562 88.835938 126.195312 89.207031 126.242188 89.609375 C 126.285156 90.007812 126.769531 90.339844 127.140625 90.371094 C 127.402344 90.386719 127.660156 90.40625 127.921875 90.40625 C 128.167969 90.40625 128.429688 90.371094 128.683594 90.324219 C 127.21875 91.058594 125.289062 91.226562 123.890625 91.140625 C 121.636719 91.011719 119.175781 90.269531 117.609375 88.5625 C 116.96875 87.878906 116.429688 87.105469 116.117188 86.234375 C 116.136719 86.265625 116.164062 86.289062 116.179688 86.308594 C 116.617188 86.710938 117.054688 87.105469 117.507812 87.476562 C 117.757812 87.679688 118.09375 87.726562 118.378906 87.5625 C 118.640625 87.394531 118.640625 87.070312 118.445312 86.859375 C 118.25 86.65625 118.0625 86.441406 117.886719 86.21875 C 117.878906 86.210938 117.859375 86.179688 117.839844 86.164062 L 117.839844 86.15625 C 117.804688 86.101562 117.765625 86.054688 117.730469 86 C 117.65625 85.898438 117.585938 85.785156 117.507812 85.683594 C 117.40625 85.527344 117.285156 85.375 117.167969 85.226562 C 117.128906 85.171875 117.082031 85.128906 117.046875 85.074219 C 117.027344 85.042969 117.007812 85.027344 116.988281 84.996094 C 116.980469 84.996094 116.960938 84.96875 116.945312 84.941406 L 116.933594 84.933594 C 116.917969 84.902344 116.898438 84.878906 116.878906 84.859375 C 116.816406 84.757812 116.742188 84.644531 116.664062 84.5625 C 116.535156 84.425781 116.359375 84.332031 116.203125 84.230469 C 116.117188 84.175781 116.027344 84.144531 115.933594 84.128906 C 115.972656 84.089844 116.007812 84.042969 116.0625 84.019531 C 116.519531 83.703125 117.335938 83.742188 117.84375 83.851562 C 119.058594 84.121094 120.199219 84.925781 121.230469 85.601562 C 122.328125 86.328125 123.402344 86.875 124.683594 87.199219 C 125.941406 87.515625 127.304688 87.53125 128.578125 87.328125 C 128.6875 87.3125 128.855469 87.292969 129.011719 87.265625 C 129.027344 87.535156 129.066406 87.804688 129.113281 88.0625 C 129.027344 88.109375 128.9375 88.15625 128.851562 88.191406 C 128.839844 88.183594 128.832031 88.191406 128.816406 88.191406 Z M 128.816406 88.191406 " fill-opacity="1" fill-rule="nonzero"/><g clip-path="url(#f6159fbad5)"><path fill="#000000" d="M 53.972656 180.957031 C 54.269531 176.070312 55.171875 171.210938 56.945312 166.636719 C 58.816406 161.824219 61.25 157.234375 63.511719 152.609375 C 66.011719 147.480469 68.59375 142.402344 71.253906 137.347656 C 71.234375 137.246094 71.234375 137.132812 71.261719 137.023438 C 71.511719 135.648438 72.902344 134.613281 73.839844 133.660156 C 74.75 132.730469 75.675781 131.8125 76.632812 130.921875 C 78.636719 129.046875 80.738281 127.25 82.9375 125.605469 C 87.011719 122.535156 91.3125 119.859375 95.847656 117.539062 C 92.429688 115.523438 86.890625 111.660156 88.695312 107.03125 C 89.484375 105.039062 91.226562 103.5625 91.953125 101.550781 C 92.832031 99.097656 90.980469 96.574219 91.109375 94.058594 C 91.417969 88.421875 97.167969 85.109375 102.398438 85.433594 C 101.675781 84.015625 101.25 82.523438 101.007812 80.984375 C 98.261719 82.371094 94.402344 81.140625 92.085938 79.433594 C 89.164062 77.289062 87.109375 73.964844 86.175781 70.492188 C 85.257812 67.042969 85.265625 63.085938 86.863281 59.828125 C 88.03125 57.453125 90.304688 56.140625 92.660156 56.25 C 93.726562 56.296875 94.8125 56.636719 95.816406 57.308594 C 97.074219 58.148438 98.191406 59.253906 99.171875 60.496094 C 98.617188 53.8125 98.761719 46.984375 99.0625 40.335938 C 99.230469 36.542969 99.695312 32.789062 101.390625 29.339844 C 102.210938 27.671875 103.3125 26.058594 105.082031 25.328125 C 106.863281 24.59375 108.957031 24.625 110.851562 24.507812 C 119.820312 23.980469 128.789062 24.472656 137.75 25.058594 C 143.917969 25.472656 155.140625 26.53125 154.945312 35.015625 C 154.890625 37.277344 154.523438 39.53125 154.371094 41.785156 C 154.191406 44.285156 154.007812 46.792969 153.859375 49.292969 C 153.714844 51.730469 153.582031 54.167969 153.433594 56.609375 C 153.351562 58.097656 153.296875 59.632812 153.15625 61.144531 C 153.1875 61.136719 153.203125 61.113281 153.21875 61.105469 C 155.910156 59.839844 159.214844 60.53125 160.921875 63.039062 C 162.523438 65.394531 162.609375 68.386719 162.171875 71.117188 C 161.679688 74.15625 160.335938 77.152344 158.34375 79.507812 C 156.328125 81.871094 152.359375 84.230469 149.421875 82.316406 C 149.3125 84.054688 149.105469 85.8125 148.457031 87.378906 C 152.136719 90.707031 155.273438 94.789062 158.046875 98.886719 C 159.308594 100.757812 160.585938 102.898438 160.726562 105.226562 C 160.855469 107.480469 159.753906 108.9375 158.277344 110.484375 C 157.492188 111.316406 157.089844 112.117188 157.269531 113.292969 C 157.445312 114.449219 157.945312 115.535156 158.0625 116.703125 C 158.234375 118.222656 157.769531 119.660156 156.914062 120.867188 C 157.394531 121.117188 157.863281 121.414062 158.324219 121.675781 C 159.492188 122.355469 160.65625 123.050781 161.792969 123.773438 C 164.183594 125.292969 166.503906 126.90625 168.746094 128.644531 C 172.375 131.441406 175.769531 134.511719 178.933594 137.824219 C 179.386719 138.296875 179.832031 138.769531 180.277344 139.25 C 180.582031 139.453125 180.792969 139.777344 180.769531 140.175781 C 180.367188 145.445312 182.003906 150.8125 183.976562 155.632812 C 186 160.578125 188.421875 165.347656 190.617188 170.214844 C 192.816406 175.078125 194.847656 180.109375 195.515625 185.441406 C 196.140625 190.417969 195.347656 195.601562 193.789062 200.332031 C 192.878906 203.09375 191.691406 205.765625 190.300781 208.316406 C 188.972656 210.761719 187.484375 213.585938 185.332031 215.398438 C 185.128906 215.566406 184.875 215.667969 184.613281 215.714844 C 184.492188 215.800781 184.375 215.882812 184.253906 215.964844 C 178.828125 219.820312 172.945312 223.125 166.796875 225.847656 C 166.742188 225.878906 166.695312 225.902344 166.640625 225.925781 C 156.941406 230.207031 146.570312 233.054688 136.171875 234.257812 C 119.007812 236.234375 101.246094 233.230469 85.332031 226.65625 C 80.839844 224.8125 76.445312 222.691406 72.265625 220.238281 C 67.980469 217.738281 63.777344 215.007812 60.132812 211.625 C 59.882812 211.402344 59.746094 211.164062 59.675781 210.921875 C 59.082031 210.738281 58.589844 210.300781 58.3125 209.726562 C 56.191406 205.375 55.261719 200.621094 54.640625 195.855469 C 53.996094 190.921875 53.667969 185.925781 53.972656 180.957031 Z M 85.367188 127.589844 C 83.347656 129.277344 81.371094 130.992188 79.457031 132.800781 C 78.511719 133.699219 77.574219 134.597656 76.65625 135.515625 C 75.738281 136.441406 74.921875 137.507812 73.792969 138.121094 C 73.96875 138.246094 74.109375 138.398438 74.191406 138.601562 C 74.433594 139.242188 74.703125 139.863281 74.980469 140.484375 C 75.265625 141.109375 75.566406 141.726562 75.882812 142.328125 C 76.585938 141.488281 77.410156 140.707031 78.058594 140.023438 C 79.496094 138.519531 81.0625 137.203125 82.875 136.171875 C 86.425781 134.160156 90.492188 133.808594 94.265625 135.402344 C 97.652344 136.835938 100.292969 139.648438 103.78125 140.878906 C 107.601562 142.234375 111.898438 141.898438 115.457031 139.960938 C 117.265625 138.980469 118.824219 137.609375 120.058594 135.996094 C 121.011719 134.738281 121.785156 133.324219 122.320312 131.832031 C 122.328125 131.722656 122.335938 131.605469 122.347656 131.496094 C 122.441406 130.515625 122.503906 129.539062 122.5625 128.558594 C 122.578125 128.234375 122.59375 127.890625 122.601562 127.554688 C 122.433594 127.480469 122.277344 127.410156 122.128906 127.308594 C 118.242188 124.730469 113.679688 123.457031 109.226562 122.214844 C 105.46875 121.167969 101.445312 120.257812 97.859375 118.582031 C 93.53125 121.351562 89.3125 124.308594 85.367188 127.589844 Z M 135.628906 108.160156 C 135.660156 107.6875 135.683594 107.203125 135.714844 106.730469 C 135.769531 105.65625 135.835938 104.578125 135.898438 103.503906 C 135.953125 102.476562 136.039062 101.453125 136.148438 100.425781 C 136.203125 99.902344 136.285156 99.378906 136.371094 98.859375 C 134.933594 100.046875 133.460938 101.199219 131.863281 102.160156 C 129.277344 103.71875 126.328125 104.515625 123.320312 104.054688 C 120.472656 103.628906 117.902344 102.140625 115.6875 100.351562 C 115.195312 99.949219 114.730469 99.535156 114.269531 99.109375 C 114.324219 100.074219 114.378906 101.046875 114.371094 102.011719 C 114.371094 103.558594 114.363281 105.097656 114.351562 106.648438 C 114.351562 106.886719 114.277344 107.09375 114.175781 107.25 C 114.191406 107.265625 114.222656 107.285156 114.253906 107.3125 C 116.691406 109.234375 119.160156 111.113281 121.660156 112.960938 C 122.996094 113.933594 124.386719 114.90625 125.535156 116.09375 C 125.738281 115.804688 125.972656 115.527344 126.230469 115.265625 C 127.335938 114.125 128.792969 113.375 130.167969 112.597656 C 131.816406 111.664062 133.476562 110.722656 135.128906 109.789062 C 135.304688 109.695312 135.492188 109.601562 135.667969 109.503906 C 135.554688 109.078125 135.609375 108.609375 135.628906 108.160156 Z M 127.808594 144.46875 C 127.429688 142.578125 127.074219 140.6875 126.734375 138.785156 C 126.390625 136.890625 126.046875 134.988281 125.707031 133.097656 C 125.597656 132.503906 125.519531 131.808594 125.417969 131.105469 C 125.261719 132.960938 125.039062 134.808594 124.769531 136.640625 C 124.492188 138.515625 124.128906 140.375 123.714844 142.234375 C 123.613281 142.695312 123.5 143.152344 123.398438 143.613281 C 123.351562 143.789062 123.304688 143.976562 123.257812 144.152344 C 124.039062 144.355469 125.113281 144.699219 125.261719 144.746094 C 126.152344 144.976562 127.046875 145.21875 127.933594 145.449219 C 127.875 145.078125 127.828125 144.609375 127.808594 144.46875 Z M 123.570312 124.679688 C 123.910156 123.28125 124.257812 121.878906 124.636719 120.488281 C 124.449219 120.136719 124.347656 119.71875 124.359375 119.265625 C 124.367188 119.199219 124.375 119.132812 124.375 119.070312 C 124.359375 119.03125 124.328125 118.984375 124.296875 118.949219 C 122.5 119.664062 120.691406 120.320312 118.816406 120.859375 C 117.882812 121.128906 116.945312 121.359375 116 121.585938 C 118.515625 122.449219 120.960938 123.476562 123.234375 124.847656 C 123.339844 124.773438 123.453125 124.71875 123.570312 124.679688 Z M 127.960938 119.496094 C 127.78125 120.257812 127.597656 121.023438 127.410156 121.785156 C 127.195312 122.695312 126.957031 123.59375 126.714844 124.503906 C 128.953125 123.4375 131.316406 122.703125 133.753906 122.28125 C 131.855469 121.214844 129.972656 120.109375 128.078125 119.015625 C 128.042969 119.171875 127.996094 119.339844 127.960938 119.496094 Z M 96.695312 89.390625 C 94.96875 90.871094 93.878906 93.207031 94.210938 95.507812 C 94.542969 97.824219 95.769531 99.882812 94.988281 102.277344 C 94.378906 104.121094 93.015625 105.53125 92.078125 107.191406 C 90.898438 109.265625 91.746094 110.871094 93.414062 112.367188 C 94.996094 113.792969 96.78125 114.820312 98.664062 115.785156 C 102.222656 117.613281 106.082031 118.671875 109.921875 119.734375 C 110.078125 119.78125 110.230469 119.820312 110.386719 119.867188 C 110.402344 119.867188 110.414062 119.847656 110.429688 119.835938 C 111.636719 119.382812 112.910156 119.214844 114.160156 118.957031 C 115.273438 118.726562 116.382812 118.476562 117.507812 118.230469 C 119.296875 117.84375 121.089844 117.46875 122.871094 117.074219 C 121.441406 115.609375 119.613281 114.457031 118.046875 113.253906 C 115.355469 111.195312 112.699219 109.101562 110.070312 106.949219 C 107.445312 104.804688 104.875 102.621094 102.351562 100.359375 C 100.554688 98.753906 98.578125 96.5 99.71875 93.960938 C 100.050781 93.222656 101.445312 93.648438 101.1875 94.472656 C 100.683594 96.046875 102.242188 97.441406 103.308594 98.375 C 104.457031 99.378906 105.644531 100.34375 106.820312 101.316406 C 108.503906 102.6875 110.179688 104.0625 111.875 105.414062 C 112 104.1875 112.109375 102.976562 112.238281 101.757812 C 112.332031 100.777344 112.5 99.800781 112.65625 98.835938 C 112.710938 98.457031 112.777344 98.085938 112.832031 97.714844 C 111.558594 96.425781 110.355469 95.082031 109.144531 93.757812 C 107.113281 91.539062 104.898438 89.378906 103.234375 86.867188 C 103.039062 86.894531 102.832031 86.921875 102.640625 86.960938 C 100.46875 87.3125 98.433594 87.898438 96.695312 89.390625 Z M 100.664062 68.347656 C 99.945312 66.550781 99.058594 64.855469 97.925781 63.277344 C 96.875 61.8125 95.679688 60.207031 94.167969 59.191406 C 93.582031 58.789062 93.046875 58.613281 92.554688 58.613281 C 90.039062 58.613281 88.796875 63.21875 88.667969 65.324219 C 88.445312 68.726562 89.445312 72.246094 91.460938 74.996094 C 92.507812 76.429688 93.867188 77.839844 95.566406 78.488281 C 97.328125 79.160156 98.675781 78.601562 100.28125 77.832031 C 100.410156 77.769531 100.566406 77.730469 100.734375 77.722656 C 100.6875 74.785156 101.019531 71.769531 101.089844 68.859375 C 100.902344 68.742188 100.746094 68.574219 100.664062 68.347656 Z M 149.613281 79.90625 C 151.125 80.015625 152.292969 80.265625 153.648438 79.394531 C 154.835938 78.625 155.757812 77.476562 156.535156 76.308594 C 158.167969 73.839844 159.1875 70.792969 159.113281 67.816406 C 159.066406 65.960938 158.398438 62.777344 155.933594 63.066406 C 153.347656 63.375 152 65.960938 151.0625 68.058594 C 150.925781 68.34375 150.65625 68.503906 150.332031 68.550781 C 150.339844 68.597656 150.359375 68.636719 150.347656 68.683594 C 150.085938 72.417969 149.828125 76.164062 149.566406 79.910156 C 149.585938 79.90625 149.59375 79.898438 149.613281 79.90625 Z M 147.199219 79.804688 C 147.703125 76.03125 148.203125 72.25 148.703125 68.472656 C 148.734375 68.316406 148.804688 68.203125 148.898438 68.117188 C 148.757812 67.960938 148.667969 67.785156 148.667969 67.578125 C 148.519531 67.550781 148.378906 67.515625 148.242188 67.476562 C 147.277344 67.191406 146.441406 66.605469 145.832031 65.726562 C 144.898438 64.359375 144.71875 62.664062 144.558594 61.0625 C 144.242188 57.792969 144.289062 54.519531 144.621094 51.242188 C 138.964844 51.984375 133.253906 51.921875 127.558594 51.519531 C 124.574219 51.304688 121.59375 50.980469 118.628906 50.601562 C 117.0625 50.402344 115.503906 50.1875 113.945312 49.953125 C 113.136719 49.84375 112.183594 49.808594 111.3125 49.621094 C 111.328125 51.429688 111.117188 53.21875 110.878906 55.007812 C 110.628906 56.875 110.160156 58.625 109.152344 60.230469 C 108.277344 61.628906 107.101562 62.84375 105.847656 63.917969 C 105.191406 64.484375 104.496094 65.023438 103.78125 65.53125 C 103.625 65.652344 103.457031 65.78125 103.277344 65.910156 C 103.425781 66.882812 103.503906 67.847656 103.519531 68.832031 C 103.628906 73.523438 102.609375 78.316406 104.058594 82.871094 C 104.976562 85.773438 107.0625 87.777344 109.105469 89.914062 C 111.25 92.160156 113.34375 94.46875 115.578125 96.628906 C 117.453125 98.425781 119.5 100.234375 121.976562 101.125 C 124.554688 102.0625 127.09375 101.550781 129.472656 100.308594 C 132.09375 98.9375 134.359375 96.90625 136.65625 95.0625 C 138.59375 93.511719 140.589844 92.03125 142.519531 90.453125 C 143.070312 90.019531 143.617188 89.566406 144.144531 89.101562 C 145.488281 87.9375 146.257812 86.671875 146.582031 84.914062 C 146.757812 83.976562 146.859375 83.023438 146.953125 82.066406 C 147.035156 81.3125 147.101562 80.554688 147.199219 79.804688 Z M 157.480469 107.21875 C 158.566406 105.246094 157.433594 102.816406 156.40625 101.0625 C 155.300781 99.195312 154.027344 97.445312 152.667969 95.75 C 150.933594 93.570312 149.0625 91.492188 147.25 89.375 C 146.324219 90.480469 145.175781 91.382812 144.078125 92.316406 C 142.566406 93.597656 141.0625 94.882812 139.554688 96.164062 C 139.0625 96.574219 138.582031 96.992188 138.097656 97.398438 C 138.097656 97.414062 138.105469 97.429688 138.105469 97.445312 C 138.125 97.863281 138.152344 98.289062 138.191406 98.703125 C 138.238281 99.351562 138.292969 100 138.3125 100.664062 C 138.328125 101.71875 138.328125 102.769531 138.304688 103.824219 C 138.273438 104.875 138.242188 105.921875 138.210938 106.96875 C 138.203125 107.308594 138.21875 107.699219 138.230469 108.101562 C 140.464844 106.886719 142.726562 105.699219 144.996094 104.527344 C 146.296875 103.871094 148.863281 103.175781 149.179688 101.574219 C 149.46875 100.128906 148.679688 98.671875 149.011719 97.1875 C 149.152344 96.566406 150.085938 96.519531 150.449219 96.910156 C 150.558594 97.019531 150.625 97.179688 150.585938 97.375 C 150.355469 98.71875 150.949219 99.96875 150.988281 101.308594 C 151.027344 102.511719 150.46875 103.4375 149.542969 104.183594 C 147.121094 106.09375 144.238281 107.660156 141.59375 109.246094 C 138.785156 110.925781 135.945312 112.554688 133.105469 114.1875 C 131.855469 114.90625 130.15625 115.710938 128.933594 116.8125 C 129.472656 117.109375 129.988281 117.492188 130.5 117.808594 C 131.285156 118.300781 132.082031 118.800781 132.882812 119.289062 C 134.246094 120.132812 135.589844 121.003906 136.917969 121.894531 C 136.933594 121.894531 136.949219 121.894531 136.964844 121.894531 C 139.21875 121.742188 141.480469 121.726562 143.734375 121.859375 C 146.179688 121.996094 148.957031 122.445312 151.328125 121.644531 C 152.988281 121.097656 154.609375 119.753906 155.078125 118.015625 C 155.617188 115.949219 154.144531 113.976562 154.40625 111.890625 C 154.675781 109.78125 156.542969 108.925781 157.480469 107.21875 Z M 166.523438 214.660156 C 166.699219 217.097656 166.800781 219.566406 167.015625 222.011719 C 172.410156 219.582031 177.652344 216.789062 182.765625 213.816406 C 182.773438 213.808594 182.773438 213.800781 182.773438 213.800781 C 183.832031 211.539062 185.558594 209.554688 186.808594 207.382812 C 188.113281 205.144531 189.238281 202.8125 190.128906 200.382812 C 191.871094 195.667969 192.667969 190.777344 192.363281 185.761719 C 191.726562 175.128906 185.582031 165.84375 181.625 156.226562 C 180.210938 152.792969 178.960938 149.253906 178.460938 145.617188 C 178.230469 145.839844 177.996094 146.050781 177.765625 146.273438 C 174.308594 149.554688 170.796875 152.773438 167.269531 155.992188 C 165.355469 157.742188 163.425781 159.308594 163.078125 162.046875 C 162.734375 164.753906 163.308594 167.664062 163.492188 170.382812 C 164.3125 181.914062 165.117188 193.449219 165.925781 204.984375 C 166.152344 208.207031 166.289062 211.433594 166.523438 214.660156 Z M 99.929688 227.945312 C 99.945312 225.847656 101.136719 223.476562 102 221.734375 C 103.046875 219.589844 104.390625 217.605469 105.996094 215.835938 C 109.492188 211.980469 113.914062 209.28125 118.953125 207.9375 C 124.75 206.378906 130.816406 206.464844 136.664062 205.238281 C 141.519531 204.21875 146.144531 202.082031 150.09375 199.097656 C 154.675781 195.632812 158.421875 191.152344 160.871094 185.941406 C 160.972656 185.71875 161.148438 185.578125 161.351562 185.496094 C 160.988281 180.65625 160.625 175.804688 160.261719 170.964844 C 160.046875 168.148438 159.660156 165.246094 159.847656 162.417969 C 160.015625 159.71875 161.179688 157.703125 163.164062 155.90625 C 167.425781 152.066406 171.871094 148.386719 176.335938 144.773438 C 176.96875 144.253906 177.609375 143.730469 178.25 143.222656 C 178.203125 142.203125 178.242188 141.171875 178.34375 140.136719 C 177.886719 139.703125 177.425781 139.261719 176.960938 138.828125 C 173.703125 135.816406 170.253906 132.988281 166.648438 130.402344 C 164.550781 128.898438 162.402344 127.464844 160.203125 126.121094 C 159.054688 125.417969 157.875 124.730469 156.699219 124.070312 C 156.429688 123.921875 156.152344 123.773438 155.855469 123.636719 C 155.855469 123.699219 155.847656 123.765625 155.847656 123.828125 C 155.53125 131.851562 155.144531 140.085938 152.25 147.667969 C 149.828125 154.019531 145.546875 159.667969 139.535156 162.984375 C 136.390625 164.722656 132.929688 165.507812 129.363281 165.5625 C 125.410156 165.617188 121.441406 164.730469 117.5 165.15625 C 110.207031 165.933594 106.363281 172.46875 103.523438 178.507812 C 100.453125 185.027344 97.289062 192.398438 90.226562 195.40625 C 90.046875 197.621094 89.882812 199.828125 89.695312 202.042969 C 89.386719 205.730469 89.09375 209.433594 88.785156 213.121094 C 88.636719 214.894531 88.5 216.65625 88.351562 218.421875 C 88.203125 220.242188 88.171875 222.132812 87.75 223.902344 C 91.71875 225.5 95.792969 226.855469 99.929688 227.945312 Z M 58.210938 193.796875 C 58.789062 199.050781 59.675781 204.347656 61.914062 209.1875 C 61.976562 209.308594 62 209.4375 62.015625 209.558594 C 62.015625 209.558594 62.015625 209.558594 62.023438 209.558594 C 69.09375 214.121094 76.007812 218.765625 83.726562 222.214844 C 83.816406 222.25 83.910156 222.296875 84.011719 222.335938 C 84.027344 221.148438 84.199219 219.953125 84.308594 218.765625 C 84.460938 217.085938 84.621094 215.398438 84.777344 213.710938 C 85.074219 210.492188 85.371094 207.277344 85.679688 204.058594 C 86.265625 197.78125 86.859375 191.496094 87.46875 185.21875 C 88.117188 178.535156 88.824219 171.839844 89.324219 165.132812 C 89.417969 163.890625 89.5 162.546875 89.148438 161.332031 C 88.792969 160.113281 87.988281 159.269531 87.015625 158.511719 C 84.984375 156.925781 82.847656 155.574219 80.980469 153.785156 C 78.546875 151.46875 76.5 148.824219 74.859375 145.9375 C 74.628906 145.734375 74.457031 145.484375 74.425781 145.1875 C 73.675781 143.789062 73.027344 142.324219 72.464844 140.820312 C 70.878906 144.523438 69.277344 148.222656 67.589844 151.886719 C 65.492188 156.453125 63.265625 161 61.390625 165.664062 C 59.601562 170.117188 58.367188 174.742188 57.933594 179.527344 C 57.5 184.273438 57.695312 189.058594 58.210938 193.796875 Z M 96.574219 71.410156 C 96.09375 71.550781 95.578125 71.519531 95.105469 71.347656 C 95.078125 71.339844 95.050781 71.316406 95.023438 71.300781 C 95.050781 71.6875 95.105469 72.070312 95.207031 72.441406 C 95.394531 73.113281 96.097656 73.933594 95.664062 74.621094 C 95.523438 74.84375 95.347656 74.953125 95.085938 75.007812 C 94.902344 75.046875 94.445312 75.054688 94.308594 74.867188 C 94.175781 74.867188 94.058594 74.820312 93.945312 74.722656 C 93.84375 74.644531 93.757812 74.566406 93.683594 74.460938 C 93.554688 74.3125 93.453125 74.136719 93.367188 73.949219 C 93.199219 73.609375 93.089844 73.21875 92.988281 72.847656 C 92.8125 72.191406 92.75 71.496094 92.792969 70.808594 C 92.839844 70.113281 93.15625 69.457031 93.867188 69.222656 C 94.210938 69.113281 94.574219 69.113281 94.925781 69.183594 C 94.972656 69.191406 95.257812 69.292969 95.492188 69.386719 C 95.5 69.347656 95.507812 69.308594 95.507812 69.308594 C 95.5625 69.003906 95.46875 68.679688 95.40625 68.390625 C 95.296875 67.898438 95.113281 67.425781 94.875 66.964844 C 94.753906 66.722656 94.652344 66.546875 94.503906 66.351562 C 94.429688 66.253906 94.347656 66.160156 94.265625 66.058594 C 94.257812 66.058594 94.144531 65.949219 94.109375 65.902344 C 94.101562 65.902344 94.101562 65.894531 94.101562 65.894531 C 94.015625 65.816406 93.921875 65.746094 93.832031 65.691406 C 93.824219 65.683594 93.675781 65.597656 93.644531 65.582031 C 93.582031 65.554688 93.507812 65.519531 93.429688 65.488281 C 93.429688 65.507812 93.207031 65.460938 93.207031 65.445312 C 92.699219 65.40625 92.105469 65.183594 92.011719 64.609375 C 91.917969 64.03125 92.464844 63.707031 92.957031 63.660156 C 94.417969 63.515625 95.730469 64.265625 96.578125 65.414062 C 97.386719 66.5 98.058594 67.992188 98.050781 69.363281 C 98.046875 70.300781 97.5 71.132812 96.574219 71.410156 Z M 95.386719 69.613281 C 95.402344 69.640625 95.421875 69.613281 95.441406 69.574219 C 95.414062 69.582031 95.386719 69.589844 95.386719 69.613281 Z M 114.148438 68.796875 C 113.398438 68.925781 112.171875 69.222656 112.292969 70.214844 C 112.378906 70.882812 113.171875 71.179688 113.75 71.164062 C 114.058594 71.144531 114.289062 71.070312 114.566406 70.960938 C 114.597656 70.945312 114.667969 70.914062 114.699219 70.90625 C 114.726562 70.898438 114.761719 70.875 114.792969 70.867188 C 115.0625 70.785156 115.339844 70.71875 115.617188 70.652344 C 115.679688 70.636719 115.746094 70.625 115.8125 70.613281 C 115.828125 70.605469 115.839844 70.605469 115.839844 70.605469 C 115.847656 70.605469 115.855469 70.605469 115.871094 70.605469 C 116 70.589844 116.140625 70.578125 116.269531 70.570312 C 116.285156 70.570312 116.378906 70.558594 116.425781 70.558594 C 116.472656 70.558594 116.519531 70.558594 116.535156 70.570312 C 116.675781 70.578125 116.804688 70.597656 116.945312 70.613281 C 117.074219 70.632812 117.214844 70.660156 117.34375 70.691406 C 117.34375 70.699219 117.59375 70.765625 117.621094 70.773438 C 118.199219 70.96875 118.539062 71.136719 119.03125 71.492188 C 119.449219 71.785156 119.90625 72.175781 120.246094 72.59375 C 120.664062 73.105469 121.890625 72.726562 121.496094 72 C 121.15625 71.378906 120.773438 70.878906 120.21875 70.425781 C 119.652344 69.953125 119.011719 69.582031 118.324219 69.3125 C 117.039062 68.796875 115.511719 68.5625 114.148438 68.796875 Z M 130.082031 84.6875 C 131.433594 85.089844 132.121094 86.433594 132.027344 87.730469 C 132.027344 87.746094 132.035156 87.757812 132.035156 87.777344 C 132 89.121094 131.433594 90.652344 130.402344 91.550781 C 129.066406 92.714844 127.324219 93.117188 125.597656 93.238281 C 122.246094 93.453125 118.574219 92.699219 116.070312 90.34375 C 114.914062 89.25 114.097656 87.832031 113.773438 86.265625 C 113.484375 84.796875 113.53125 83.277344 115.0625 82.628906 C 118.402344 81.210938 121.25 84.542969 124.34375 85.050781 C 125.261719 85.199219 126.210938 85.183594 127.117188 84.976562 C 128.136719 84.742188 129.03125 84.382812 130.082031 84.6875 Z M 129.007812 87.257812 C 128.851562 87.289062 128.683594 87.304688 128.574219 87.320312 C 127.300781 87.523438 125.941406 87.507812 124.675781 87.191406 C 123.398438 86.867188 122.324219 86.320312 121.226562 85.59375 C 120.199219 84.917969 119.058594 84.113281 117.839844 83.84375 C 117.332031 83.734375 116.515625 83.695312 116.058594 84.011719 C 116.003906 84.039062 115.964844 84.085938 115.929688 84.121094 C 116.019531 84.136719 116.113281 84.167969 116.199219 84.222656 C 116.355469 84.324219 116.53125 84.414062 116.660156 84.554688 C 116.738281 84.636719 116.808594 84.75 116.875 84.847656 C 116.894531 84.867188 116.914062 84.894531 116.929688 84.925781 L 116.941406 84.933594 C 116.957031 84.964844 116.976562 84.988281 116.984375 84.988281 C 117.003906 85.019531 117.023438 85.035156 117.039062 85.0625 C 117.078125 85.117188 117.125 85.164062 117.164062 85.21875 C 117.285156 85.367188 117.402344 85.515625 117.503906 85.675781 C 117.578125 85.777344 117.652344 85.890625 117.726562 85.992188 C 117.765625 86.046875 117.804688 86.089844 117.835938 86.144531 L 117.835938 86.15625 C 117.855469 86.171875 117.875 86.199219 117.882812 86.210938 C 118.058594 86.433594 118.246094 86.644531 118.4375 86.847656 C 118.632812 87.0625 118.632812 87.386719 118.375 87.554688 C 118.089844 87.722656 117.753906 87.675781 117.503906 87.46875 C 117.050781 87.097656 116.617188 86.699219 116.175781 86.300781 C 116.160156 86.285156 116.132812 86.253906 116.113281 86.226562 C 116.429688 87.097656 116.96875 87.867188 117.605469 88.554688 C 119.171875 90.261719 121.632812 91 123.886719 91.132812 C 125.285156 91.214844 127.214844 91.046875 128.679688 90.316406 C 128.429688 90.363281 128.167969 90.398438 127.917969 90.398438 C 127.65625 90.398438 127.398438 90.382812 127.136719 90.363281 C 126.765625 90.332031 126.28125 90 126.234375 89.597656 C 126.191406 89.199219 126.46875 88.828125 126.859375 88.746094 C 127.167969 88.667969 127.453125 88.566406 127.75 88.496094 C 128.042969 88.410156 128.34375 88.347656 128.628906 88.246094 C 128.691406 88.230469 128.75 88.203125 128.8125 88.183594 C 128.824219 88.183594 128.832031 88.175781 128.84375 88.175781 C 128.929688 88.136719 129.019531 88.09375 129.105469 88.046875 C 129.0625 87.792969 129.023438 87.527344 129.007812 87.257812 Z M 123.4375 64.390625 C 124.859375 62.953125 123.761719 60.957031 122.503906 59.855469 C 121.324219 58.828125 119.664062 58.296875 118.105469 58.371094 C 116.734375 58.4375 114.71875 59.003906 114.210938 60.457031 C 114.171875 60.519531 114.132812 60.597656 114.125 60.6875 C 114.097656 60.796875 114.109375 60.902344 114.125 60.996094 C 114.179688 62.007812 114.960938 62.769531 115.917969 63.09375 C 116.445312 63.269531 117.003906 63.308594 117.550781 63.296875 C 118.03125 63.289062 118.515625 63.25 118.921875 63.332031 C 119.257812 63.398438 119.5 63.488281 119.757812 63.675781 C 120.074219 63.90625 120.3125 64.199219 120.613281 64.445312 C 121.445312 65.105469 122.652344 65.179688 123.4375 64.390625 Z M 129.757812 73.46875 C 129.441406 73.292969 129.042969 73.277344 128.753906 73.507812 C 128.515625 73.703125 128.449219 74.109375 128.71875 74.324219 C 129.867188 75.234375 131.1875 76.585938 130.816406 78.191406 C 130.738281 78.5 130.554688 78.769531 130.3125 78.988281 C 130.238281 79.050781 130.167969 79.117188 130.089844 79.179688 C 130.074219 79.1875 129.988281 79.242188 129.953125 79.28125 C 129.914062 79.296875 129.820312 79.367188 129.8125 79.367188 C 129.71875 79.421875 129.636719 79.476562 129.542969 79.523438 C 129.1875 79.699219 128.828125 79.808594 128.476562 79.976562 C 128.042969 80.179688 127.726562 80.410156 127.484375 80.832031 C 127.269531 81.203125 127.613281 81.6875 127.984375 81.789062 C 128.503906 81.925781 128.933594 81.972656 129.457031 81.851562 C 129.738281 81.796875 129.988281 81.695312 130.246094 81.582031 C 130.625 81.414062 130.988281 81.21875 131.332031 80.980469 C 132.175781 80.394531 132.769531 79.558594 132.945312 78.539062 C 133.113281 77.523438 132.816406 76.433594 132.242188 75.59375 C 131.621094 74.65625 130.722656 74.003906 129.757812 73.46875 Z M 139.085938 64.140625 C 138.59375 64.152344 138.199219 63.882812 137.761719 63.773438 C 137.136719 63.601562 136.480469 63.742188 135.816406 63.996094 C 134.925781 64.335938 134.078125 64.914062 133.078125 64.746094 C 132.066406 64.589844 131.230469 63.773438 131.046875 62.777344 C 130.851562 61.757812 131.410156 60.773438 132.121094 60.109375 C 133.371094 59.011719 135.0625 58.734375 136.664062 58.988281 C 138.148438 59.210938 140.078125 59.980469 140.746094 61.425781 C 141.089844 62.175781 140.941406 63.078125 140.332031 63.640625 C 139.996094 63.957031 139.550781 64.132812 139.085938 64.140625 Z M 133.328125 63.101562 C 133.328125 63.132812 133.402344 63.109375 133.328125 63.101562 Z M 135.703125 70.484375 C 135.609375 71.328125 135.703125 72.117188 135.960938 72.921875 C 136.039062 73.144531 136.285156 73.332031 136.480469 73.441406 C 136.675781 73.550781 136.878906 73.617188 137.113281 73.632812 C 137.566406 73.671875 138.023438 73.511719 138.277344 73.117188 C 139.058594 71.9375 139.28125 70.363281 138.863281 69.011719 C 138.789062 68.769531 138.71875 68.601562 138.523438 68.433594 C 138.367188 68.285156 138.199219 68.203125 137.992188 68.140625 C 137.714844 68.054688 137.398438 68.054688 137.121094 68.148438 C 136.878906 68.195312 136.628906 68.277344 136.441406 68.464844 C 136.339844 68.574219 136.257812 68.695312 136.195312 68.832031 C 136.09375 69.046875 136.007812 69.265625 135.933594 69.503906 C 135.878906 69.652344 135.832031 69.796875 135.792969 69.957031 C 135.777344 70.011719 135.757812 70.066406 135.738281 70.125 C 135.722656 70.203125 135.722656 70.265625 135.730469 70.328125 C 135.722656 70.382812 135.710938 70.429688 135.703125 70.484375 Z M 151.8125 75.910156 C 151.820312 75.898438 151.820312 75.890625 151.832031 75.878906 C 151.832031 75.871094 151.832031 75.863281 151.832031 75.851562 C 151.820312 75.878906 151.8125 75.898438 151.8125 75.910156 Z M 151.832031 75.878906 C 151.683594 76.511719 152.300781 76.9375 152.917969 76.90625 C 153.566406 76.890625 154.113281 76.425781 154.605469 76.027344 C 155.007812 75.710938 155.347656 75.339844 155.632812 74.914062 C 156.125 74.171875 156.289062 73.1875 156.011719 72.335938 C 155.84375 71.84375 155.566406 71.449219 155.148438 71.132812 C 155.085938 71.085938 155.011719 71.023438 154.933594 70.992188 C 154.972656 70.839844 155.042969 70.539062 155.058594 70.515625 C 155.179688 70.152344 155.328125 69.71875 155.621094 69.457031 C 155.722656 69.363281 155.804688 69.308594 155.945312 69.28125 C 155.960938 69.296875 155.976562 69.308594 156.019531 69.34375 C 156.34375 69.582031 156.875 69.558594 157.1875 69.3125 C 157.464844 69.089844 157.542969 68.617188 157.242188 68.378906 C 156.25 67.554688 154.757812 67.675781 153.914062 68.671875 C 153.554688 69.105469 153.328125 69.601562 153.136719 70.128906 C 152.902344 70.769531 152.804688 71.355469 153.304688 71.910156 C 153.414062 72.035156 153.554688 72.136719 153.683594 72.238281 C 153.730469 72.273438 153.746094 72.28125 153.757812 72.28125 C 153.769531 72.292969 153.777344 72.300781 153.804688 72.328125 C 153.835938 72.375 153.851562 72.390625 153.859375 72.40625 C 153.890625 72.441406 153.90625 72.480469 153.921875 72.527344 C 153.953125 72.582031 153.960938 72.589844 153.960938 72.589844 C 153.960938 72.597656 153.96875 72.621094 153.976562 72.664062 C 154.078125 73.054688 154.023438 73.4375 153.867188 73.761719 C 153.667969 74.179688 153.339844 74.492188 152.980469 74.789062 C 152.8125 74.925781 152.601562 75.058594 152.402344 75.1875 C 152.273438 75.28125 152.132812 75.382812 152.023438 75.496094 C 151.988281 75.539062 151.886719 75.761719 151.832031 75.878906 Z M 151.832031 75.878906 " fill-opacity="1" fill-rule="nonzero"/></g></svg>