<svg width="27" height="27" viewBox="0 0 27 27" fill="none" xmlns="http://www.w3.org/2000/svg">
<path d="M22.0135 6.32432C22.0135 7.05405 21.4054 7.60135 20.7365 7.60135C20.0068 7.60135 19.4595 6.99324 19.4595 6.32432C19.4595 5.5946 20.0676 5.0473 20.7365 5.0473C21.4054 4.98649 22.0135 5.5946 22.0135 6.32432ZM27 6.87162V20.1284C27 23.8987 23.8986 27 20.1284 27H6.87162C3.10135 27 0 23.8987 0 20.1284V6.87162C0 3.10135 3.10135 0 6.87162 0H20.1284C23.9595 0 27 3.10135 27 6.87162ZM24.4459 6.87162C24.4459 4.5 22.5 2.55405 20.1284 2.55405H6.87162C4.5 2.55405 2.55405 4.5 2.55405 6.87162V20.1284C2.55405 22.5 4.5 24.446 6.87162 24.446H20.1284C22.5608 24.446 24.5068 22.5 24.5068 20.1284L24.4459 6.87162ZM20.5541 13.5C20.5541 9.60811 17.3919 6.44595 13.5 6.44595C9.60811 6.44595 6.44595 9.60811 6.44595 13.5C6.44595 17.3919 9.60811 20.5541 13.5 20.5541C17.3919 20.5541 20.5541 17.3919 20.5541 13.5ZM18 13.5C18 15.9932 15.9932 18 13.5 18C11.0068 18 9 15.9932 9 13.5C9 11.0068 11.0068 9 13.5 9C15.9932 9 18 11.0068 18 13.5Z" fill="#FFAF00"/>
</svg>
