<svg width="309" height="67" viewBox="0 0 309 67" fill="none" xmlns="http://www.w3.org/2000/svg">
<path d="M45 40.5C45 52.9264 34.9264 63 22.5 63C10.0736 63 0 52.9264 0 40.5C0 28.0736 10.0736 18 22.5 18C34.9264 18 45 28.0736 45 40.5Z" fill="#FECE00"/>
<path d="M68.6406 24.918C68.6406 30.3346 65.8223 33.2969 60.1855 33.8047V34.084C63.1309 34.1517 65.4499 34.9557 67.1426 36.4961C68.8353 38.0365 69.6816 40.2624 69.6816 43.1738C69.6816 44.3926 69.5378 45.5944 69.25 46.7793C68.9622 47.9473 68.3359 48.9883 67.3711 49.9023C66.4232 50.8164 65.0436 51.5612 63.2324 52.1367C61.4382 52.7122 59.0176 53 55.9707 53H28.041V43.5801C29.5306 43.5801 30.597 43.3854 31.2402 42.9961C31.8835 42.5898 32.2051 41.8366 32.2051 40.7363V27.8887C32.2051 26.7715 31.8835 26.0182 31.2402 25.6289C30.597 25.2227 29.5306 25.0195 28.041 25.0195V15.5996H57.7227C60.0586 15.5996 61.946 15.862 63.3848 16.3867C64.8236 16.9115 65.9323 17.6055 66.7109 18.4688C67.4896 19.332 68.0059 20.3307 68.2598 21.4648C68.5137 22.582 68.6406 23.7331 68.6406 24.918ZM50.9688 43.5801C52.3906 43.5801 53.3724 43.3092 53.9141 42.7676C54.4557 42.209 54.7266 41.2865 54.7266 40C54.7266 38.7135 54.4557 37.7826 53.9141 37.207C53.3724 36.6146 52.3906 36.3184 50.9688 36.3184H47.1855V43.5801H50.9688ZM47.1855 31.8242H51.0195C52.069 31.8242 52.8223 31.4941 53.2793 30.834C53.7533 30.1569 53.9902 29.3444 53.9902 28.3965C53.9902 27.4993 53.7533 26.7122 53.2793 26.0352C52.8223 25.3581 52.069 25.0195 51.0195 25.0195H47.1855V31.8242ZM92 39.9492H83.9766L83.6211 41.041C83.3503 41.7689 83.3672 42.3783 83.6719 42.8691C83.9766 43.3431 84.6198 43.5801 85.6016 43.5801H87.0488V53H71.2305V43.5801H72.2715C73.4902 43.5801 74.3027 43.3431 74.709 42.8691C75.1322 42.3783 75.5384 41.6673 75.9277 40.7363L81.1328 27.8887C81.5052 26.9069 81.5645 26.1875 81.3105 25.7305C81.0736 25.2565 80.3372 25.0195 79.1016 25.0195H78.5684V15.5996H104.67V25.0195H104.162C102.91 25.0195 102.156 25.265 101.902 25.7559C101.665 26.2467 101.742 26.9577 102.131 27.8887L107.336 40.7363C107.539 41.2103 107.717 41.625 107.869 41.9805C108.038 42.319 108.242 42.6152 108.479 42.8691C108.715 43.1061 109.029 43.2839 109.418 43.4023C109.824 43.5208 110.34 43.5801 110.967 43.5801H112.008V53H88.9277V43.5801H90.3242C91.2891 43.5801 91.9323 43.3431 92.2539 42.8691C92.5924 42.3783 92.6263 41.7689 92.3555 41.041L92 39.9492ZM85.2715 35.9883H90.6797L88.1406 28.1934H87.9375L85.2715 35.9883ZM148.24 29.1836H139.861C139.726 28.3203 139.421 27.5163 138.947 26.7715C138.49 26.0267 137.923 25.3835 137.246 24.8418C136.569 24.3001 135.816 23.8854 134.986 23.5977C134.157 23.293 133.302 23.1406 132.422 23.1406C131.355 23.1406 130.492 23.3438 129.832 23.75C129.172 24.1562 128.842 24.7233 128.842 25.4512C128.842 26.1452 129.138 26.7122 129.73 27.1523C130.323 27.5755 131.102 27.9479 132.066 28.2695C133.031 28.5742 134.132 28.8704 135.367 29.1582C136.603 29.446 137.855 29.8014 139.125 30.2246C140.411 30.6478 141.673 31.1641 142.908 31.7734C144.144 32.3659 145.244 33.1361 146.209 34.084C147.174 35.015 147.952 36.1576 148.545 37.5117C149.137 38.8659 149.434 40.4909 149.434 42.3867C149.434 44.401 149.002 46.1191 148.139 47.541C147.275 48.9629 146.116 50.1309 144.66 51.0449C143.204 51.959 141.529 52.6276 139.633 53.0508C137.737 53.474 135.773 53.6855 133.742 53.6855C131.762 53.6855 129.866 53.457 128.055 53C126.26 52.543 124.424 51.7982 122.545 50.7656V53H114.166V39.1621H122.545C123.036 41.1426 124.018 42.7083 125.49 43.8594C126.963 44.9935 128.622 45.5605 130.467 45.5605C131.702 45.5605 132.625 45.332 133.234 44.875C133.844 44.401 134.148 43.8678 134.148 43.2754C134.148 42.3444 133.641 41.625 132.625 41.1172C131.626 40.6094 130.382 40.1608 128.893 39.7715C127.403 39.3652 125.77 38.9167 123.992 38.4258C122.232 37.918 120.607 37.1986 119.117 36.2676C117.628 35.3197 116.375 34.0755 115.359 32.5352C114.361 30.9948 113.861 28.9805 113.861 26.4922C113.861 24.6471 114.259 23.0137 115.055 21.5918C115.85 20.1699 116.917 18.9766 118.254 18.0117C119.591 17.0299 121.132 16.2936 122.875 15.8027C124.635 15.2949 126.489 15.041 128.436 15.041C131.127 15.041 133.438 15.3542 135.367 15.9805C137.297 16.6068 138.795 17.2669 139.861 17.9609V15.5996H148.24V29.1836ZM151.795 53V43.5801C153.285 43.5801 154.351 43.3854 154.994 42.9961C155.637 42.5898 155.959 41.8366 155.959 40.7363V27.8887C155.959 26.7715 155.637 26.0182 154.994 25.6289C154.351 25.2227 153.285 25.0195 151.795 25.0195V15.5996H175.078V25.0195C173.589 25.0195 172.522 25.2227 171.879 25.6289C171.253 26.0182 170.939 26.7715 170.939 27.8887V40.7363C170.939 41.8366 171.253 42.5898 171.879 42.9961C172.522 43.3854 173.589 43.5801 175.078 43.5801V53H151.795ZM200.469 25.0195C198.979 25.0195 197.913 25.2227 197.27 25.6289C196.643 26.0182 196.33 26.7715 196.33 27.8887V43.5801H201.408C202.102 43.5801 202.686 43.5124 203.16 43.377C203.634 43.2415 204.007 42.9622 204.277 42.5391C204.548 42.099 204.734 41.4896 204.836 40.7109C204.954 39.9323 205.014 38.8997 205.014 37.6133H213.9V53H177.186V43.5801C178.675 43.5801 179.742 43.3854 180.385 42.9961C181.028 42.5898 181.35 41.8366 181.35 40.7363V27.8887C181.35 26.7715 181.028 26.0182 180.385 25.6289C179.742 25.2227 178.675 25.0195 177.186 25.0195V15.5996H200.469V25.0195ZM215.982 53V43.5801C217.472 43.5801 218.538 43.3854 219.182 42.9961C219.825 42.5898 220.146 41.8366 220.146 40.7363V27.8887C220.146 26.7715 219.825 26.0182 219.182 25.6289C218.538 25.2227 217.472 25.0195 215.982 25.0195V15.5996H239.266V25.0195C237.776 25.0195 236.71 25.2227 236.066 25.6289C235.44 26.0182 235.127 26.7715 235.127 27.8887V40.7363C235.127 41.8366 235.44 42.5898 236.066 42.9961C236.71 43.3854 237.776 43.5801 239.266 43.5801V53H215.982ZM241.627 34.3379C241.627 31.071 242.16 28.2103 243.227 25.7559C244.31 23.2845 245.833 21.2194 247.797 19.5605C249.76 17.9017 252.088 16.6576 254.779 15.8281C257.488 14.9987 260.475 14.584 263.742 14.584C266.992 14.584 269.971 14.9987 272.68 15.8281C275.388 16.6576 277.715 17.9017 279.662 19.5605C281.626 21.2194 283.141 23.2845 284.207 25.7559C285.29 28.2103 285.832 31.071 285.832 34.3379C285.832 37.5879 285.29 40.4486 284.207 42.9199C283.141 45.3743 281.626 47.4395 279.662 49.1152C277.715 50.7741 275.388 52.0182 272.68 52.8477C269.971 53.6771 266.992 54.0918 263.742 54.0918C260.475 54.0918 257.488 53.6771 254.779 52.8477C252.088 52.0182 249.76 50.7741 247.797 49.1152C245.833 47.4395 244.31 45.3743 243.227 42.9199C242.16 40.4486 241.627 37.5879 241.627 34.3379ZM258.689 34.3379C258.689 36.3861 258.766 38.1042 258.918 39.4922C259.07 40.8633 259.333 41.9805 259.705 42.8438C260.094 43.6901 260.611 44.3079 261.254 44.6973C261.897 45.0697 262.727 45.2559 263.742 45.2559C264.707 45.2559 265.52 45.0697 266.18 44.6973C266.84 44.3079 267.356 43.6901 267.729 42.8438C268.118 41.9805 268.389 40.8633 268.541 39.4922C268.693 38.1042 268.77 36.3861 268.77 34.3379C268.77 32.3236 268.693 30.6139 268.541 29.209C268.389 27.804 268.118 26.6784 267.729 25.832C267.356 24.9857 266.84 24.3763 266.18 24.0039C265.52 23.6146 264.707 23.4199 263.742 23.4199C262.727 23.4199 261.897 23.6146 261.254 24.0039C260.611 24.3763 260.094 24.9857 259.705 25.832C259.333 26.6784 259.07 27.804 258.918 29.209C258.766 30.6139 258.689 32.3236 258.689 34.3379Z" fill="#3C3939"/>
<path d="M27 58L306 58" stroke="#FECE00" stroke-width="6" stroke-linecap="round"/>
</svg>
